<svg xmlns="http://www.w3.org/2000/svg" xmlns:xlink="http://www.w3.org/1999/xlink" width="200" zoomAndPan="magnify" viewBox="0 0 150 149.999998" height="200" preserveAspectRatio="xMidYMid meet" version="1.0"><path fill="#000000" d="M 115.949219 21.523438 C 118.128906 20.644531 120.65625 20.628906 122.988281 21.640625 C 127.679688 23.664062 129.804688 29.058594 127.796875 33.757812 C 125.773438 38.460938 120.378906 40.613281 115.6875 38.578125 C 111.011719 36.5625 108.890625 31.144531 110.90625 26.457031 C 111.914062 24.109375 113.765625 22.394531 115.949219 21.523438 Z M 114.738281 18.460938 C 111.765625 19.648438 109.238281 21.976562 107.871094 25.144531 C 105.144531 31.476562 108.070312 38.886719 114.386719 41.621094 C 120.710938 44.359375 128.097656 41.421875 130.820312 35.074219 C 133.546875 28.734375 130.621094 21.332031 124.289062 18.597656 C 121.128906 17.222656 117.714844 17.28125 114.738281 18.460938 Z M 114.738281 18.460938 " fill-opacity="1" fill-rule="evenodd"/><path fill="#000000" d="M 115.796875 89.820312 L 121.304688 95.484375 L 116.363281 102.660156 C 115.914062 103.328125 115.429688 103.753906 115.089844 103.871094 L 101.265625 108.480469 C 99.765625 108.972656 98.730469 108.789062 97.898438 108.332031 C 97.066406 107.863281 96.414062 107.042969 96.046875 106.070312 C 95.683594 105.101562 95.632812 104.023438 95.890625 103.238281 C 96.136719 102.449219 96.546875 101.949219 97.421875 101.664062 L 109.949219 97.707031 C 110.296875 97.597656 110.597656 97.371094 110.804688 97.070312 Z M 138.621094 59.742188 C 139.878906 59.792969 140.679688 60.578125 141.03125 61.867188 C 141.445312 63.4375 140.78125 65.289062 138.957031 65.832031 L 129.289062 68.722656 L 129.3125 62.308594 L 137.210938 59.949219 C 137.730469 59.792969 138.195312 59.722656 138.621094 59.742188 Z M 119.710938 48.539062 C 120.421875 48.566406 121.121094 48.65625 121.773438 48.832031 C 124.394531 49.535156 126.066406 51.125 126.054688 53.390625 L 125.9375 83.710938 C 125.929688 84.148438 126.097656 84.566406 126.398438 84.875 L 133.707031 92.386719 C 134.1875 92.878906 134.53125 93.480469 134.699219 94.132812 L 139.289062 112.328125 C 139.65625 113.789062 139.40625 114.8125 138.886719 115.605469 C 138.371094 116.40625 137.511719 116.976562 136.546875 117.226562 C 135.578125 117.472656 134.535156 117.378906 133.703125 116.925781 C 132.871094 116.476562 132.171875 115.699219 131.804688 114.234375 L 127.570312 97.488281 C 127.496094 97.203125 127.355469 96.941406 127.148438 96.734375 L 113.113281 82.222656 C 112.722656 81.65625 112.53125 81.1875 112.53125 80.148438 L 112.53125 61.695312 C 112.523438 60.359375 111.011719 59.570312 109.921875 60.339844 L 106.128906 63.027344 C 105.753906 63.285156 105.503906 63.695312 105.4375 64.148438 L 103.011719 77.222656 C 102.847656 78.4375 102.355469 79.085938 101.746094 79.523438 C 101.136719 79.964844 100.339844 80.148438 99.546875 80.074219 C 98.753906 80 98.011719 79.640625 97.546875 79.148438 C 97.089844 78.644531 96.8125 78.042969 96.929688 77.015625 L 99.3125 62.117188 C 99.457031 60.910156 99.890625 59.925781 100.613281 59.40625 L 113.972656 49.957031 C 115.378906 48.957031 117.597656 48.449219 119.710938 48.539062 Z M 118.488281 45.1875 C 116.179688 45.253906 113.90625 45.949219 112.0625 47.242188 L 98.710938 56.695312 C 97.105469 57.832031 96.136719 60.742188 96.023438 61.730469 L 93.65625 76.621094 C 93.429688 78.519531 94.058594 80.242188 95.140625 81.410156 C 95.632812 81.9375 96.214844 82.351562 96.839844 82.667969 C 89.289062 94.320312 81.097656 96.917969 73.53125 95.929688 C 69.007812 95.347656 64.6875 93.332031 61.023438 90.945312 C 61.28125 89.660156 61.949219 89.324219 62.871094 89.316406 L 68.179688 89.28125 C 71.1875 89.257812 73.371094 87.257812 74.179688 85.066406 C 74.589844 83.972656 74.703125 82.785156 74.339844 81.648438 C 73.960938 80.507812 72.953125 79.472656 71.65625 79.121094 C 70.085938 78.695312 69.222656 78.410156 68.722656 78.109375 C 68.222656 77.808594 67.90625 77.457031 67.296875 76.484375 C 66.371094 75.023438 64.855469 74.070312 63.296875 73.199219 C 62.445312 72.722656 61.722656 72.570312 60.945312 72.261719 L 61.714844 70.589844 C 62.269531 69.433594 61.378906 68.101562 60.105469 68.203125 C 59.5 68.253906 58.972656 68.628906 58.730469 69.191406 L 57.796875 71.199219 L 56.457031 70.90625 L 57.121094 68.0625 C 57.421875 66.757812 56.28125 66.023438 55.261719 66.132812 C 54.65625 66.1875 54.085938 66.554688 53.914062 67.300781 C 52.804688 71.84375 51.703125 76.417969 50.707031 80.984375 C 50.4375 82.222656 49.039062 84.601562 44.613281 84.933594 C 37.753906 85.46875 32.878906 83.914062 27.921875 84.382812 C 25.730469 84.589844 26.046875 87.894531 28.230469 87.683594 C 32.222656 87.316406 37.429688 88.828125 44.871094 88.253906 C 50.445312 87.816406 53.457031 84.539062 53.964844 81.527344 L 55.695312 74.136719 C 57.839844 74.503906 60.003906 75.144531 61.707031 76.082031 C 63.023438 76.820312 64.265625 77.882812 64.515625 78.273438 C 65.230469 79.421875 65.992188 80.316406 67.023438 80.941406 C 67.972656 81.519531 69.015625 81.796875 70.40625 82.222656 C 71.4375 82.539062 71.324219 82.957031 71.089844 83.902344 C 70.832031 84.964844 69.738281 85.945312 68.15625 85.960938 L 62.851562 86.003906 C 61.417969 86.011719 60.101562 86.464844 59.191406 87.359375 C 58.730469 87.824219 58.398438 88.359375 58.167969 88.9375 C 56.605469 87.742188 55.214844 86.511719 54.082031 85.375 L 51.75 87.71875 C 53.324219 89.308594 55.324219 91.039062 57.605469 92.679688 C 57.632812 93.878906 57.808594 95.171875 58.191406 96.441406 C 58.796875 98.472656 59.941406 100.539062 62.023438 101.59375 L 65.65625 103.433594 L 65.683594 104.453125 C 65.390625 104.085938 64.964844 103.863281 64.5 103.835938 L 60.582031 103.578125 C 59.550781 103.503906 58.699219 104.40625 58.832031 105.441406 L 59.78125 112.777344 L 58.175781 109.105469 C 58.097656 108.9375 57.996094 108.777344 57.867188 108.644531 L 52.875 103.242188 C 52.5 102.839844 51.964844 102.65625 51.421875 102.730469 C 45.023438 103.640625 41.640625 102.035156 38.546875 100.789062 C 37.007812 100.160156 35.492188 99.550781 33.722656 99.660156 C 31.949219 99.769531 30.171875 100.695312 28.40625 102.46875 C 25.375 105.507812 22.492188 106.09375 19.613281 106.425781 L 20.597656 104.125 C 21.046875 103.066406 20.308594 101.875 19.15625 101.824219 L 13.324219 101.535156 C 16.324219 100.136719 19.007812 98.613281 20.300781 96.472656 C 21.140625 95.085938 21.339844 93.304688 21.757812 91.898438 C 22.125 90.660156 22.625 89.789062 24 88.996094 C 25.039062 88.378906 25.101562 86.878906 24.101562 86.195312 C 21.976562 84.738281 18.089844 80.875 18.089844 76.625 C 18.160156 74.339844 14.714844 74.339844 14.792969 76.625 C 14.792969 81.960938 18.332031 85.617188 21.050781 87.773438 C 20.117188 88.792969 18.976562 89.78125 18.632812 90.84375 C 18.117188 92.417969 17.902344 93.765625 17.480469 94.699219 C 15.082031 97.527344 12.773438 99.023438 10.632812 99.660156 C 9.675781 99.941406 8.984375 100.445312 8.582031 101.097656 L 5.566406 106 C 5.195312 106.609375 5.261719 107.40625 5.726562 107.949219 L 7.6875 110.222656 C 9.117188 112.003906 11.734375 109.722656 10.167969 108.039062 L 9.011719 106.691406 L 10.308594 104.59375 C 10.507812 104.683594 10.71875 104.734375 10.933594 104.734375 L 16.636719 105.011719 L 15.777344 107.160156 C 15.363281 107.449219 15.105469 107.929688 15.085938 108.4375 L 14.179688 113.632812 C 14.0625 114.335938 14.394531 115.027344 15.003906 115.375 L 18.136719 117.136719 C 20.105469 118.425781 21.863281 115.265625 19.746094 114.242188 L 17.628906 113.046875 L 18.171875 109.96875 C 21.671875 109.636719 26.304688 109.265625 30.730469 104.824219 C 32.164062 103.386719 33.070312 103.035156 33.921875 102.984375 C 34.78125 102.925781 35.839844 103.257812 37.320312 103.863281 C 40.0625 104.976562 44.554688 106.386719 50.773438 105.859375 L 55.261719 110.703125 L 57.632812 116.097656 C 57.964844 116.863281 58.589844 117.429688 59.328125 117.757812 L 59.335938 117.757812 L 63.976562 120.460938 C 65.886719 121.5625 67.535156 118.683594 65.628906 117.582031 L 63.578125 116.402344 C 63.578125 116.34375 63.578125 116.292969 63.570312 116.242188 L 62.363281 107.023438 L 63.554688 107.097656 C 63.554688 107.097656 65.289062 109.300781 66.15625 110.394531 C 66.4375 110.753906 66.769531 111.007812 67.09375 111.15625 L 71.621094 113.28125 C 73.585938 114.160156 74.945312 111.242188 73.019531 110.28125 L 69.1875 108.480469 L 68.894531 102.308594 C 68.871094 101.714844 68.527344 101.179688 68.003906 100.914062 L 63.507812 98.625 C 61.945312 97.832031 61.640625 96.417969 61.230469 95.003906 C 64.753906 97.027344 68.78125 98.660156 73.113281 99.230469 C 82.03125 100.394531 92.089844 96.6875 100.304688 83.394531 C 101.480469 83.328125 102.65625 82.953125 103.671875 82.222656 C 105.003906 81.261719 106.003906 79.675781 106.277344 77.675781 L 108.621094 65.320312 L 109.210938 64.902344 L 109.210938 80.152344 C 109.210938 81.75 109.695312 83.09375 110.394531 84.109375 C 111.09375 85.128906 111.929688 85.847656 112.730469 86.667969 L 113.445312 87.402344 L 108.402344 94.722656 L 96.429688 98.511719 C 94.554688 99.105469 93.261719 100.601562 92.746094 102.234375 C 92.222656 103.863281 92.347656 105.628906 92.945312 107.234375 C 93.554688 108.851562 94.671875 110.339844 96.304688 111.242188 C 97.9375 112.148438 100.0625 112.363281 102.289062 111.621094 L 116.128906 107.027344 C 117.589844 106.542969 118.464844 105.453125 119.089844 104.550781 L 123.664062 97.902344 L 124.472656 98.738281 L 128.597656 115.066406 C 129.164062 117.300781 130.496094 118.964844 132.136719 119.859375 C 133.769531 120.746094 135.644531 120.886719 137.347656 120.453125 C 139.054688 120.019531 140.628906 118.988281 141.652344 117.425781 C 142.671875 115.863281 143.054688 113.765625 142.488281 111.53125 L 137.898438 93.328125 C 137.589844 92.089844 136.945312 90.96875 136.070312 90.074219 L 129.238281 83.046875 L 129.28125 72.191406 L 139.886719 69.003906 C 143.472656 67.933594 144.914062 64.210938 144.253906 61.175781 C 143.921875 59.652344 143.070312 58.195312 141.652344 57.296875 C 140.226562 56.402344 138.304688 56.15625 136.261719 56.769531 L 129.332031 58.839844 L 129.355469 53.40625 C 129.363281 51.324219 128.546875 49.515625 127.28125 48.210938 C 126.011719 46.914062 124.355469 46.070312 122.589844 45.617188 C 121.128906 45.246094 119.847656 45.144531 118.488281 45.1875 Z M 118.488281 45.1875 " fill-opacity="1" fill-rule="nonzero"/></svg>