<svg xmlns="http://www.w3.org/2000/svg" xmlns:xlink="http://www.w3.org/1999/xlink" width="200" zoomAndPan="magnify" viewBox="0 0 150 149.999998" height="200" preserveAspectRatio="xMidYMid meet" version="1.0"><path fill="#000000" d="M 123.710938 106.554688 C 113.550781 106.554688 105.28125 114.8125 105.28125 124.960938 C 105.28125 135.109375 113.550781 143.367188 123.710938 143.367188 C 133.871094 143.367188 142.140625 135.109375 142.140625 124.960938 C 142.140625 114.8125 133.871094 106.554688 123.710938 106.554688 Z M 123.710938 141.203125 C 114.746094 141.203125 107.449219 133.917969 107.449219 124.960938 C 107.449219 116.003906 114.742188 108.71875 123.710938 108.71875 C 132.675781 108.71875 139.972656 116.003906 139.972656 124.960938 C 139.972656 133.917969 132.675781 141.203125 123.710938 141.203125 Z M 123.710938 141.203125 " fill-opacity="1" fill-rule="nonzero"/><path fill="#000000" d="M 132.382812 116.296875 C 130.589844 116.296875 129.128906 117.753906 129.128906 119.542969 C 129.128906 121.335938 130.589844 122.792969 132.382812 122.792969 C 134.175781 122.792969 135.632812 121.335938 135.632812 119.542969 C 135.632812 117.753906 134.175781 116.296875 132.382812 116.296875 Z M 132.382812 120.625 C 131.78125 120.625 131.296875 120.140625 131.296875 119.542969 C 131.296875 118.945312 131.78125 118.460938 132.382812 118.460938 C 132.980469 118.460938 133.464844 118.945312 133.464844 119.542969 C 133.464844 120.140625 132.980469 120.625 132.382812 120.625 Z M 132.382812 120.625 " fill-opacity="1" fill-rule="nonzero"/><path fill="#000000" d="M 123.710938 121.710938 C 121.917969 121.710938 120.457031 123.167969 120.457031 124.957031 C 120.457031 126.75 121.917969 128.207031 123.710938 128.207031 C 125.503906 128.207031 126.960938 126.75 126.960938 124.957031 C 126.960938 123.167969 125.503906 121.710938 123.710938 121.710938 Z M 123.710938 126.039062 C 123.109375 126.039062 122.625 125.554688 122.625 124.957031 C 122.625 124.359375 123.109375 123.875 123.710938 123.875 C 124.308594 123.875 124.792969 124.359375 124.792969 124.957031 C 124.792969 125.554688 124.308594 126.039062 123.710938 126.039062 Z M 123.710938 126.039062 " fill-opacity="1" fill-rule="nonzero"/><path fill="#000000" d="M 123.710938 132.535156 C 121.917969 132.535156 120.457031 133.996094 120.457031 135.785156 C 120.457031 137.578125 121.917969 139.035156 123.710938 139.035156 C 125.503906 139.035156 126.960938 137.578125 126.960938 135.785156 C 126.960938 133.996094 125.503906 132.535156 123.710938 132.535156 Z M 123.710938 136.867188 C 123.109375 136.867188 122.625 136.382812 122.625 135.785156 C 122.625 135.1875 123.109375 134.703125 123.710938 134.703125 C 124.308594 134.703125 124.792969 135.1875 124.792969 135.785156 C 124.792969 136.382812 124.308594 136.867188 123.710938 136.867188 Z M 123.710938 136.867188 " fill-opacity="1" fill-rule="nonzero"/><path fill="#000000" d="M 115.039062 116.296875 C 113.246094 116.296875 111.785156 117.753906 111.785156 119.542969 C 111.785156 121.335938 113.246094 122.792969 115.039062 122.792969 C 116.832031 122.792969 118.289062 121.335938 118.289062 119.542969 C 118.289062 117.753906 116.832031 116.296875 115.039062 116.296875 Z M 115.039062 120.625 C 114.4375 120.625 113.953125 120.140625 113.953125 119.542969 C 113.953125 118.945312 114.4375 118.460938 115.039062 118.460938 C 115.636719 118.460938 116.121094 118.945312 116.121094 119.542969 C 116.121094 120.140625 115.636719 120.625 115.039062 120.625 Z M 115.039062 120.625 " fill-opacity="1" fill-rule="nonzero"/><path fill="#000000" d="M 115.039062 126.039062 C 113.246094 126.039062 111.785156 127.496094 111.785156 129.289062 C 111.785156 131.078125 113.246094 132.535156 115.039062 132.535156 C 116.832031 132.535156 118.289062 131.078125 118.289062 129.289062 C 118.289062 127.496094 116.832031 126.039062 115.039062 126.039062 Z M 115.039062 130.371094 C 114.4375 130.371094 113.953125 129.886719 113.953125 129.289062 C 113.953125 128.691406 114.4375 128.207031 115.039062 128.207031 C 115.636719 128.207031 116.121094 128.691406 116.121094 129.289062 C 116.121094 129.886719 115.636719 130.371094 115.039062 130.371094 Z M 115.039062 130.371094 " fill-opacity="1" fill-rule="nonzero"/><path fill="#000000" d="M 123.710938 110.882812 C 121.917969 110.882812 120.457031 112.339844 120.457031 114.128906 C 120.457031 115.921875 121.917969 117.378906 123.710938 117.378906 C 125.503906 117.378906 126.960938 115.921875 126.960938 114.128906 C 126.960938 112.339844 125.503906 110.882812 123.710938 110.882812 Z M 123.710938 115.214844 C 123.109375 115.214844 122.625 114.726562 122.625 114.128906 C 122.625 113.53125 123.109375 113.046875 123.710938 113.046875 C 124.308594 113.046875 124.792969 113.53125 124.792969 114.128906 C 124.792969 114.726562 124.308594 115.214844 123.710938 115.214844 Z M 123.710938 115.214844 " fill-opacity="1" fill-rule="nonzero"/><path fill="#000000" d="M 132.382812 126.039062 C 130.589844 126.039062 129.128906 127.496094 129.128906 129.289062 C 129.128906 131.078125 130.589844 132.535156 132.382812 132.535156 C 134.175781 132.535156 135.632812 131.078125 135.632812 129.289062 C 135.632812 127.496094 134.175781 126.039062 132.382812 126.039062 Z M 132.382812 130.371094 C 131.78125 130.371094 131.296875 129.886719 131.296875 129.289062 C 131.296875 128.691406 131.78125 128.207031 132.382812 128.207031 C 132.980469 128.207031 133.464844 128.691406 133.464844 129.289062 C 133.464844 129.886719 132.980469 130.371094 132.382812 130.371094 Z M 132.382812 130.371094 " fill-opacity="1" fill-rule="nonzero"/><path fill="#000000" d="M 132.0625 47.316406 L 114.074219 28.972656 C 114.050781 28.945312 114.023438 28.917969 114 28.894531 L 101.71875 17.007812 C 98.03125 13.25 93.640625 11.269531 89.019531 11.269531 C 84.417969 11.28125 79.90625 13.320312 76.332031 17 L 44.917969 48.378906 C 36.785156 56.0625 38.203125 69.320312 43.664062 77.898438 C 46.023438 81.601562 47.566406 87.777344 41.53125 96.175781 C 41.222656 96.605469 41.269531 97.195312 41.644531 97.570312 L 51.398438 107.316406 C 51.78125 107.699219 52.390625 107.738281 52.820312 107.414062 C 57.71875 103.730469 61.597656 103.300781 64.089844 103.300781 C 66.878906 103.300781 70.097656 105.171875 72.019531 106.289062 L 72.21875 106.40625 C 75.921875 108.554688 80.636719 109.800781 85.375 109.800781 C 90.949219 109.800781 96.566406 108.074219 100.628906 104.066406 L 132.054688 72.679688 C 135.746094 69.09375 137.789062 64.589844 137.800781 59.996094 C 137.8125 55.394531 135.832031 51.011719 132.0625 47.316406 Z M 130.53125 71.136719 L 99.101562 102.53125 C 93.777344 107.777344 82.675781 109.960938 73.304688 104.53125 L 73.109375 104.417969 C 70.996094 103.191406 67.460938 101.136719 64.089844 101.136719 C 59.910156 101.136719 56.132812 102.410156 52.277344 105.132812 L 43.820312 96.683594 C 50.253906 87.1875 47.660156 80.140625 45.492188 76.734375 C 40.496094 68.890625 39.121094 56.839844 46.429688 49.929688 L 77.875 18.519531 C 81.050781 15.25 85.011719 13.445312 89.023438 13.433594 C 93.042969 13.433594 96.898438 15.191406 100.191406 18.542969 L 112.433594 30.390625 C 112.445312 30.40625 112.457031 30.417969 112.46875 30.429688 L 130.523438 48.839844 C 130.527344 48.84375 130.535156 48.851562 130.539062 48.855469 C 133.882812 52.132812 135.644531 55.984375 135.632812 59.988281 C 135.621094 64.054688 133.863281 67.902344 130.53125 71.136719 Z M 130.53125 71.136719 " fill-opacity="1" fill-rule="nonzero"/><path fill="#000000" d="M 142.140625 60.085938 C 142.160156 54.089844 139.734375 48.398438 135.316406 44.066406 L 120.199219 28.964844 C 120.183594 28.945312 120.164062 28.925781 120.144531 28.90625 L 104.972656 13.75 C 100.648438 9.347656 94.972656 6.925781 88.988281 6.925781 C 88.96875 6.925781 88.945312 6.925781 88.925781 6.925781 C 82.960938 6.945312 77.332031 9.367188 73.078125 13.742188 L 41.660156 45.128906 C 32.542969 53.914062 33.34375 70.085938 39.3125 80.027344 C 41.824219 84.210938 41.136719 88.773438 37.210938 93.976562 C 36.085938 95.46875 35.332031 98.082031 36.570312 99.976562 L 8.066406 127.433594 C 8.066406 127.433594 8.0625 127.4375 8.0625 127.4375 C 8.0625 127.4375 8.058594 127.4375 8.058594 127.441406 C 6.40625 129.066406 5.5625 130.765625 5.554688 132.496094 C 5.546875 134.234375 6.390625 135.964844 8.058594 137.632812 L 11.3125 140.882812 C 12.957031 142.527344 14.632812 143.347656 16.339844 143.347656 C 18.039062 143.347656 19.765625 142.527344 21.511719 140.886719 C 21.511719 140.882812 21.515625 140.882812 21.515625 140.882812 C 21.519531 140.878906 21.519531 140.878906 21.519531 140.878906 C 21.523438 140.875 21.527344 140.871094 21.53125 140.867188 L 49.023438 112.40625 C 50.917969 113.609375 53.507812 112.863281 54.992188 111.746094 C 60.203125 107.824219 64.769531 107.140625 68.957031 109.644531 C 73.679688 112.472656 79.808594 114.140625 85.878906 114.140625 C 92.605469 114.140625 99.269531 112.09375 103.882812 107.316406 L 135.308594 75.929688 C 139.699219 71.671875 142.125 66.042969 142.140625 60.085938 Z M 20.738281 138.574219 L 10.371094 128.21875 L 38.054688 101.554688 L 42.671875 106.167969 C 42.6875 106.1875 42.707031 106.207031 42.726562 106.226562 L 47.4375 110.933594 Z M 12.84375 139.351562 L 9.59375 136.101562 C 8.347656 134.859375 7.71875 133.648438 7.722656 132.503906 C 7.726562 131.621094 8.121094 130.707031 8.867188 129.777344 L 19.152344 140.050781 C 16.382812 142.152344 14.484375 140.988281 12.84375 139.351562 Z M 102.335938 105.800781 C 96.066406 112.289062 81.945312 114.898438 70.070312 107.789062 C 68.089844 106.601562 66.019531 106.007812 63.871094 106.007812 C 60.640625 106.007812 57.234375 107.34375 53.683594 110.015625 C 52.890625 110.617188 50.796875 111.492188 49.761719 110.203125 C 49.746094 110.183594 49.726562 110.160156 49.707031 110.140625 C 49.699219 110.132812 49.691406 110.125 49.683594 110.117188 L 44.316406 104.753906 C 44.300781 104.734375 44.28125 104.714844 44.261719 104.695312 L 38.839844 99.277344 C 38.8125 99.253906 38.785156 99.226562 38.753906 99.199219 C 37.460938 98.164062 38.339844 96.078125 38.941406 95.28125 C 43.394531 89.378906 44.148438 83.871094 41.171875 78.914062 C 34.054688 67.054688 36.664062 52.953125 43.179688 46.671875 L 74.625 15.261719 C 78.476562 11.300781 83.558594 9.109375 88.933594 9.09375 C 88.953125 9.09375 88.96875 9.09375 88.988281 9.09375 C 94.382812 9.09375 99.511719 11.285156 103.429688 15.273438 L 118.554688 30.378906 C 118.570312 30.402344 118.589844 30.421875 118.609375 30.441406 L 133.789062 45.601562 C 133.789062 45.601562 133.792969 45.605469 133.796875 45.609375 C 137.792969 49.53125 139.988281 54.671875 139.972656 60.082031 C 139.960938 65.453125 137.765625 70.527344 133.789062 74.386719 Z M 102.335938 105.800781 " fill-opacity="1" fill-rule="nonzero"/></svg>