<svg xmlns="http://www.w3.org/2000/svg" xmlns:xlink="http://www.w3.org/1999/xlink" width="200" zoomAndPan="magnify" viewBox="0 0 150 149.999998" height="200" preserveAspectRatio="xMidYMid meet" version="1.0"><path fill="#153db6" d="M 101.097656 87.289062 C 100.878906 87.289062 100.65625 87.304688 100.433594 87.335938 C 97.671875 87.703125 95.726562 90.25 96.09375 93.011719 C 96.425781 95.511719 98.582031 97.398438 101.105469 97.398438 C 101.328125 97.398438 101.550781 97.386719 101.773438 97.355469 C 104.535156 96.984375 106.480469 94.441406 106.113281 91.675781 C 105.78125 89.175781 103.625 87.289062 101.097656 87.289062 Z M 101.097656 87.289062 " fill-opacity="1" fill-rule="nonzero"/><path fill="#153db6" d="M 108.03125 56.917969 C 105.777344 55.429688 102.800781 54.644531 99.417969 54.644531 C 98.425781 54.644531 97.40625 54.710938 96.386719 54.847656 C 93.011719 55.296875 89.738281 56.929688 87.40625 59.324219 C 85.039062 61.757812 83.886719 64.726562 84.253906 67.46875 C 84.523438 69.496094 86.050781 70.804688 88.136719 70.804688 C 88.363281 70.804688 88.589844 70.785156 88.820312 70.757812 C 91.609375 70.382812 92.210938 68.460938 92.792969 66.605469 C 93.453125 64.484375 94.078125 62.488281 97.683594 62.003906 C 98.054688 61.957031 98.414062 61.929688 98.757812 61.929688 C 101.351562 61.929688 102.964844 63.300781 103.296875 65.789062 C 103.621094 68.222656 101.695312 70.164062 99.65625 72.21875 C 97.371094 74.527344 94.777344 77.140625 95.273438 80.851562 C 95.398438 81.804688 95.820312 82.695312 96.457031 83.359375 C 97.1875 84.121094 98.140625 84.523438 99.21875 84.523438 C 99.417969 84.523438 99.621094 84.511719 99.824219 84.480469 C 102.746094 84.09375 103.140625 82.398438 103.527344 80.757812 C 103.671875 80.140625 103.824219 79.496094 104.113281 78.921875 C 104.519531 78.113281 105.53125 77.167969 106.707031 76.070312 C 109.511719 73.449219 113.351562 69.859375 112.640625 64.542969 C 112.199219 61.214844 110.644531 58.648438 108.03125 56.917969 Z M 108.03125 56.917969 " fill-opacity="1" fill-rule="nonzero"/><path fill="#153db6" d="M 139.386719 101.082031 L 131.5625 42.464844 C 131.160156 39.457031 128.574219 37.1875 125.539062 37.1875 C 125.273438 37.1875 125 37.207031 124.730469 37.242188 L 66.117188 45.066406 C 62.792969 45.507812 60.449219 48.574219 60.894531 51.898438 L 61.339844 55.253906 L 22.894531 49.695312 C 22.671875 49.664062 22.441406 49.648438 22.21875 49.648438 C 19.890625 49.648438 17.886719 51.386719 17.550781 53.691406 L 10.992188 99.09375 C 10.8125 100.34375 11.128906 101.585938 11.882812 102.59375 C 12.636719 103.605469 13.738281 104.257812 14.988281 104.4375 L 60.390625 111 C 60.617188 111.027344 60.84375 111.042969 61.066406 111.042969 C 63.394531 111.042969 65.398438 109.308594 65.734375 107.003906 L 67.039062 97.960938 L 68.714844 110.511719 C 69.117188 113.519531 71.703125 115.789062 74.734375 115.789062 C 75.003906 115.789062 75.277344 115.769531 75.546875 115.738281 L 134.164062 107.910156 C 135.769531 107.699219 137.203125 106.871094 138.1875 105.578125 C 139.175781 104.289062 139.601562 102.691406 139.386719 101.082031 Z M 61.859375 106.445312 C 61.796875 106.875 61.390625 107.1875 60.953125 107.121094 L 15.546875 100.5625 C 15.261719 100.523438 15.09375 100.347656 15.019531 100.25 C 14.945312 100.152344 14.828125 99.941406 14.871094 99.65625 L 21.429688 54.25 C 21.484375 53.859375 21.824219 53.5625 22.21875 53.5625 C 22.257812 53.5625 22.296875 53.566406 22.335938 53.574219 L 61.878906 59.285156 L 65.140625 83.722656 Z M 134.179688 102.511719 C 134.082031 102.640625 133.863281 102.859375 133.496094 102.910156 L 74.878906 110.730469 C 74.3125 110.8125 73.792969 110.402344 73.71875 109.84375 L 65.898438 51.230469 C 65.820312 50.664062 66.21875 50.144531 66.785156 50.070312 L 125.398438 42.246094 C 125.445312 42.242188 125.492188 42.238281 125.539062 42.238281 C 126.054688 42.238281 126.492188 42.625 126.5625 43.136719 L 134.386719 101.75 C 134.429688 102.121094 134.273438 102.386719 134.179688 102.511719 Z M 134.179688 102.511719 " fill-opacity="1" fill-rule="nonzero"/><path fill="#153db6" d="M 51.402344 66.730469 C 49.601562 65.085938 46.9375 63.933594 43.902344 63.496094 C 43.347656 63.414062 42.777344 63.375 42.207031 63.375 C 39.820312 63.375 37.476562 64.074219 35.601562 65.347656 C 33.671875 66.65625 32.453125 68.433594 32.175781 70.351562 C 32.046875 71.261719 32.261719 72.074219 32.808594 72.703125 C 33.296875 73.265625 34.035156 73.644531 34.886719 73.769531 C 35.101562 73.800781 35.308594 73.816406 35.503906 73.816406 C 37.222656 73.816406 37.992188 72.644531 38.734375 71.511719 C 39.5625 70.242188 40.347656 69.042969 42.433594 69.042969 C 42.722656 69.042969 43.035156 69.066406 43.355469 69.113281 C 45.828125 69.46875 47.0625 70.929688 46.746094 73.125 C 46.472656 75.007812 44.625 76.050781 42.671875 77.15625 C 40.476562 78.394531 37.984375 79.796875 37.570312 82.671875 C 37.453125 83.472656 37.617188 84.308594 38.019531 84.957031 C 38.347656 85.492188 38.992188 86.167969 40.199219 86.34375 C 40.453125 86.378906 40.691406 86.398438 40.914062 86.398438 C 42.613281 86.398438 43.191406 85.351562 43.75 84.34375 C 43.988281 83.910156 44.234375 83.464844 44.574219 83.097656 C 45.046875 82.578125 46.007812 82.085938 47.113281 81.515625 C 49.761719 80.15625 53.390625 78.285156 53.984375 74.167969 C 54.40625 71.238281 53.515625 68.667969 51.402344 66.730469 Z M 51.402344 66.730469 " fill-opacity="1" fill-rule="nonzero"/><path fill="#153db6" d="M 40.050781 88.597656 C 39.867188 88.574219 39.679688 88.558594 39.496094 88.558594 C 37.558594 88.558594 35.886719 90.003906 35.609375 91.917969 C 35.300781 94.058594 36.789062 96.050781 38.929688 96.359375 C 39.113281 96.390625 39.300781 96.398438 39.484375 96.398438 C 41.425781 96.398438 43.097656 94.957031 43.371094 93.039062 C 43.679688 90.902344 42.191406 88.910156 40.050781 88.597656 Z M 40.050781 88.597656 " fill-opacity="1" fill-rule="nonzero"/></svg>