<svg xmlns="http://www.w3.org/2000/svg" xmlns:xlink="http://www.w3.org/1999/xlink" width="200" zoomAndPan="magnify" viewBox="0 0 150 149.999998" height="200" preserveAspectRatio="xMidYMid meet" version="1.0"><path fill="#000000" d="M 112.039062 130.210938 L 97.414062 117.507812 C 97.308594 117.414062 97.164062 117.363281 97.027344 117.363281 L 74.578125 117.363281 L 74.578125 110.242188 C 75.144531 110.535156 75.773438 110.699219 76.429688 110.699219 C 77.398438 110.699219 78.328125 110.347656 79.046875 109.699219 L 89.722656 100.234375 C 90.351562 99.679688 90.773438 99.011719 90.972656 98.265625 C 91.335938 96.945312 90.996094 95.554688 90.066406 94.558594 L 82.148438 85.847656 C 82.03125 85.695312 81.355469 84.730469 81.226562 84.257812 C 81.023438 83.539062 80.910156 82.785156 80.863281 82.007812 C 80.570312 77.191406 80.886719 73.96875 81.703125 68.558594 C 81.769531 68.113281 81.960938 67.691406 82.246094 67.320312 L 94.003906 52.769531 C 95.125 51.382812 95.019531 49.382812 93.734375 48.128906 L 79.15625 33.773438 C 79.0625 33.691406 78.980469 33.605469 78.875 33.523438 C 78.78125 29.945312 77 27.175781 74.730469 27.175781 C 72.464844 27.175781 70.6875 29.933594 70.589844 33.523438 C 70.496094 33.605469 70.398438 33.691406 70.308594 33.773438 L 55.691406 48.125 C 54.421875 49.386719 54.300781 51.378906 55.421875 52.765625 L 67.179688 67.316406 L 67.226562 67.378906 C 67.496094 67.695312 67.671875 68.058594 67.730469 68.433594 C 68.535156 72.941406 68.675781 75.40625 68.367188 79.878906 C 68.308594 80.820312 68.097656 81.773438 67.753906 82.703125 C 67.257812 84.082031 66.660156 86.269531 66.660156 88.882812 L 66.660156 117.351562 L 52.988281 117.351562 C 52.84375 117.351562 52.707031 117.398438 52.601562 117.492188 L 37.976562 130.195312 C 37.789062 130.363281 37.71875 130.621094 37.8125 130.855469 C 37.894531 131.089844 38.121094 131.242188 38.363281 131.242188 L 111.628906 131.242188 C 111.878906 131.242188 112.097656 131.089844 112.183594 130.855469 C 112.300781 130.636719 112.226562 130.375 112.039062 130.210938 Z M 67.886719 88.886719 C 67.886719 86.449219 68.441406 84.402344 68.914062 83.121094 C 69.292969 82.085938 69.519531 81.023438 69.585938 79.964844 C 69.90625 75.375 69.761719 72.855469 68.929688 68.226562 C 68.824219 67.640625 68.550781 67.085938 68.148438 66.605469 L 56.355469 52.015625 C 55.621094 51.109375 55.695312 49.804688 56.53125 48.980469 L 71.132812 34.628906 C 71.238281 34.519531 71.367188 34.425781 71.496094 34.332031 C 71.660156 34.226562 71.765625 34.023438 71.765625 33.8125 C 71.765625 31.011719 72.992188 28.605469 74.488281 28.386719 C 74.761719 29.773438 75.375 33.828125 74.503906 39.066406 C 74.210938 39.050781 73.9375 39.027344 73.832031 38.984375 C 73.597656 38.839844 73.289062 38.875 73.097656 39.066406 L 61.585938 50.378906 C 61.359375 50.589844 61.347656 50.945312 61.539062 51.179688 L 69.3125 60.800781 C 69.429688 60.941406 69.59375 61.027344 69.773438 61.027344 C 69.945312 61.027344 70.125 60.941406 70.234375 60.800781 C 70.695312 60.234375 71.199219 59.765625 71.742188 59.375 C 72.675781 59.730469 73.679688 59.917969 74.730469 59.917969 C 75.757812 59.917969 76.734375 59.730469 77.640625 59.398438 C 78.21875 59.773438 78.773438 60.246094 79.246094 60.785156 C 79.363281 60.914062 79.539062 61 79.707031 60.988281 C 79.882812 60.988281 80.046875 60.90625 80.167969 60.765625 L 87.925781 51.171875 C 88.113281 50.9375 88.101562 50.582031 87.878906 50.371094 L 76.367188 39.054688 C 76.164062 38.867188 75.882812 38.820312 75.648438 38.964844 C 75.5625 39 75.421875 39.023438 75.230469 39.035156 C 76.070312 33.945312 75.550781 30.039062 75.246094 28.4375 C 76.613281 28.90625 77.675781 31.167969 77.675781 33.804688 C 77.675781 34.007812 77.78125 34.191406 77.945312 34.308594 C 78.074219 34.394531 78.195312 34.484375 78.308594 34.605469 L 92.910156 48.957031 C 93.75 49.78125 93.820312 51.085938 93.085938 51.992188 L 81.3125 66.542969 C 80.890625 67.0625 80.617188 67.683594 80.523438 68.347656 C 79.695312 73.832031 79.363281 77.117188 79.671875 82.039062 C 79.71875 82.882812 79.863281 83.722656 80.074219 84.523438 C 80.285156 85.285156 81.148438 86.492188 81.253906 86.597656 L 89.179688 95.335938 C 89.828125 96.027344 90.0625 97.007812 89.816406 97.921875 C 89.671875 98.429688 89.367188 98.914062 88.917969 99.3125 L 78.242188 108.777344 C 77.734375 109.222656 77.085938 109.472656 76.410156 109.472656 C 75.65625 109.472656 74.9375 109.164062 74.417969 108.625 C 74.402344 108.613281 74.394531 108.601562 74.378906 108.578125 C 74.34375 108.542969 74.320312 108.511719 74.289062 108.472656 C 73.355469 107.355469 73.523438 105.613281 74.652344 104.609375 L 82.765625 97.402344 C 82.910156 97.285156 82.976562 97.109375 82.96875 96.921875 C 82.953125 96.734375 82.863281 96.566406 82.710938 96.460938 C 76.449219 92.113281 75.691406 92.355469 75.40625 92.445312 C 75.148438 92.527344 74.878906 92.589844 74.605469 92.632812 C 74.484375 92.648438 74.378906 92.703125 74.296875 92.777344 C 74.039062 93.003906 73.941406 93.085938 73.625 98.890625 C 73.496094 101.222656 73.390625 103.5625 73.367188 104.234375 C 72.222656 105.683594 72.171875 107.800781 73.351562 109.222656 L 73.351562 122.378906 C 73.351562 123.132812 73.042969 123.835938 72.503906 124.367188 C 71.953125 124.886719 71.234375 125.160156 70.476562 125.121094 C 69.039062 125.054688 67.859375 123.78125 67.859375 122.285156 L 67.878906 88.886719 Z M 67.507812 51.53125 C 67.507812 47.558594 70.738281 44.324219 74.730469 44.324219 C 78.707031 44.324219 81.949219 47.546875 81.949219 51.53125 C 81.949219 55.507812 78.71875 58.734375 74.730469 58.734375 C 70.742188 58.734375 67.507812 55.507812 67.507812 51.53125 Z M 83.136719 51.53125 C 83.136719 46.902344 79.363281 43.136719 74.730469 43.136719 C 70.09375 43.136719 66.320312 46.902344 66.320312 51.53125 C 66.320312 54.636719 68.019531 57.347656 70.53125 58.804688 C 70.273438 59.015625 70.023438 59.25 69.789062 59.5 L 62.804688 50.859375 L 73.679688 40.179688 C 74.28125 40.308594 75.175781 40.308594 75.78125 40.179688 L 86.652344 50.859375 L 79.667969 59.5 C 79.421875 59.25 79.164062 59.03125 78.902344 58.828125 C 81.429688 57.378906 83.136719 54.648438 83.136719 51.53125 Z M 75.214844 93.785156 C 75.386719 93.75 75.554688 93.703125 75.71875 93.65625 C 76.355469 93.785156 79.023438 95.421875 81.429688 97.0625 L 74.648438 103.078125 C 74.796875 99.566406 75.046875 95.046875 75.214844 93.785156 Z M 53.25 118.542969 L 56.046875 118.542969 L 45.445312 130.058594 L 40.007812 130.058594 Z M 47.054688 130.058594 L 57.660156 118.542969 L 66.679688 118.542969 L 66.679688 122.308594 C 66.679688 124.460938 68.328125 126.242188 70.429688 126.339844 L 70.621094 126.339844 C 71.632812 126.339844 72.601562 125.960938 73.34375 125.253906 C 74.136719 124.5 74.570312 123.488281 74.570312 122.402344 L 74.578125 118.542969 L 92.378906 118.542969 L 102.980469 130.058594 Z M 104.621094 130.058594 L 94.015625 118.542969 L 96.8125 118.542969 L 110.058594 130.058594 Z M 104.621094 130.058594 " fill-opacity="1" fill-rule="nonzero"/></svg>