<svg xmlns="http://www.w3.org/2000/svg" xmlns:xlink="http://www.w3.org/1999/xlink" width="200" zoomAndPan="magnify" viewBox="0 0 150 149.999998" height="200" preserveAspectRatio="xMidYMid meet" version="1.0"><path fill="#000000" d="M 82.328125 107.777344 C 77.363281 108.628906 72.324219 108.628906 67.359375 107.777344 C 66.921875 107.691406 66.503906 107.941406 66.347656 108.347656 C 66.1875 108.753906 66.335938 109.214844 66.699219 109.453125 L 71.621094 112.6875 L 71.882812 119.800781 C 71.914062 120.710938 72.183594 121.617188 72.667969 122.492188 L 74.035156 124.949219 C 74.195312 125.242188 74.5 125.417969 74.835938 125.417969 C 75.175781 125.417969 75.480469 125.234375 75.640625 124.949219 L 77.007812 122.492188 C 77.492188 121.617188 77.753906 120.710938 77.792969 119.800781 L 78.054688 112.6875 L 82.976562 109.453125 C 83.339844 109.214844 83.488281 108.753906 83.324219 108.347656 C 83.175781 107.941406 82.753906 107.691406 82.328125 107.777344 Z M 76.652344 111.414062 C 76.621094 111.433594 76.621094 111.476562 76.59375 111.503906 C 76.519531 111.566406 76.496094 111.644531 76.4375 111.726562 C 76.363281 111.847656 76.289062 111.941406 76.269531 112.078125 C 76.265625 112.109375 76.238281 112.121094 76.234375 112.152344 L 75.953125 119.738281 C 75.929688 120.363281 75.746094 120.988281 75.40625 121.605469 L 74.84375 122.617188 L 74.28125 121.605469 C 73.941406 120.992188 73.753906 120.363281 73.734375 119.738281 L 73.453125 112.152344 C 73.453125 112.121094 73.421875 112.109375 73.421875 112.078125 C 73.410156 111.957031 73.339844 111.878906 73.285156 111.777344 C 73.230469 111.675781 73.191406 111.570312 73.097656 111.503906 C 73.074219 111.476562 73.074219 111.441406 73.042969 111.421875 L 71.042969 110.109375 C 73.578125 110.316406 76.128906 110.316406 78.664062 110.109375 Z M 74.75 84.355469 C 71.632812 84.378906 68.71875 85.617188 66.53125 87.839844 C 62.019531 92.441406 62.074219 99.863281 66.660156 104.378906 C 68.859375 106.546875 71.757812 107.742188 74.84375 107.742188 L 74.9375 107.742188 C 78.054688 107.714844 80.976562 106.472656 83.15625 104.25 C 85.339844 102.019531 86.527344 99.074219 86.503906 95.953125 C 86.480469 92.828125 85.246094 89.902344 83.019531 87.714844 C 80.800781 85.523438 77.902344 84.375 74.75 84.355469 Z M 81.847656 102.960938 C 80.011719 104.84375 77.546875 105.886719 74.925781 105.902344 C 72.363281 105.867188 69.820312 104.917969 67.949219 103.074219 C 64.09375 99.261719 64.035156 93.007812 67.839844 89.140625 C 69.675781 87.265625 72.140625 86.21875 74.761719 86.199219 L 74.84375 86.199219 C 77.4375 86.199219 79.886719 87.203125 81.738281 89.027344 C 83.605469 90.871094 84.648438 93.332031 84.671875 95.96875 C 84.691406 98.605469 83.6875 101.085938 81.847656 102.960938 Z M 72.75 94.394531 C 72.386719 94.039062 72.386719 93.457031 72.742188 93.089844 C 73.105469 92.726562 73.683594 92.726562 74.046875 93.082031 L 74.4375 93.472656 C 74.800781 93.828125 74.800781 94.40625 74.445312 94.777344 C 74.265625 94.957031 74.027344 95.050781 73.789062 95.050781 C 73.558594 95.050781 73.324219 94.964844 73.140625 94.78125 Z M 74.605469 94.933594 C 74.96875 94.5625 75.546875 94.570312 75.910156 94.925781 L 76.300781 95.3125 C 76.664062 95.671875 76.664062 96.25 76.308594 96.621094 C 76.128906 96.800781 75.890625 96.894531 75.652344 96.894531 C 75.421875 96.894531 75.1875 96.808594 75.003906 96.625 L 74.613281 96.238281 C 74.25 95.882812 74.25 95.296875 74.605469 94.933594 Z M 76.46875 96.769531 C 76.832031 96.402344 77.410156 96.40625 77.773438 96.761719 L 78.164062 97.152344 C 78.527344 97.507812 78.527344 98.089844 78.171875 98.457031 C 77.992188 98.636719 77.753906 98.730469 77.515625 98.730469 C 77.285156 98.730469 77.050781 98.644531 76.871094 98.464844 L 76.476562 98.074219 C 76.117188 97.71875 76.117188 97.136719 76.46875 96.769531 Z M 69.339844 94.121094 C 68.980469 93.765625 68.980469 93.183594 69.335938 92.816406 C 69.695312 92.453125 70.277344 92.453125 70.636719 92.808594 L 71.03125 93.195312 C 71.390625 93.550781 71.390625 94.132812 71.035156 94.5 C 70.855469 94.683594 70.617188 94.777344 70.382812 94.777344 C 70.152344 94.777344 69.914062 94.6875 69.734375 94.507812 Z M 71.199219 94.664062 C 71.554688 94.300781 72.132812 94.296875 72.5 94.652344 L 72.894531 95.039062 C 73.253906 95.394531 73.261719 95.976562 72.90625 96.34375 C 72.726562 96.527344 72.488281 96.621094 72.25 96.621094 C 72.019531 96.621094 71.789062 96.53125 71.609375 96.359375 L 71.214844 95.96875 C 70.847656 95.609375 70.84375 95.027344 71.199219 94.664062 Z M 73.464844 98.1875 L 73.074219 97.800781 C 72.710938 97.445312 72.710938 96.863281 73.066406 96.496094 C 73.429688 96.132812 74.007812 96.132812 74.371094 96.488281 L 74.761719 96.875 C 75.125 97.230469 75.125 97.8125 74.769531 98.183594 C 74.589844 98.363281 74.351562 98.457031 74.113281 98.457031 C 73.882812 98.457031 73.648438 98.371094 73.464844 98.1875 Z M 76.640625 100.019531 C 76.457031 100.199219 76.222656 100.292969 75.984375 100.292969 C 75.753906 100.292969 75.523438 100.207031 75.34375 100.03125 L 74.949219 99.644531 C 74.589844 99.289062 74.582031 98.707031 74.9375 98.339844 C 75.292969 97.976562 75.871094 97.96875 76.238281 98.324219 L 76.632812 98.710938 C 76.988281 99.074219 76.992188 99.65625 76.640625 100.019531 Z M 78.488281 100.5625 C 78.851562 100.917969 78.851562 101.5 78.496094 101.867188 C 78.316406 102.050781 78.078125 102.144531 77.839844 102.144531 C 77.609375 102.144531 77.375 102.054688 77.195312 101.875 L 76.800781 101.488281 C 76.4375 101.128906 76.4375 100.550781 76.792969 100.179688 C 77.15625 99.820312 77.734375 99.820312 78.097656 100.175781 Z M 66.871094 94.765625 C 66.511719 94.40625 66.511719 93.828125 66.867188 93.457031 C 67.226562 93.089844 67.808594 93.097656 68.167969 93.453125 L 68.5625 93.839844 C 68.921875 94.195312 68.921875 94.777344 68.566406 95.144531 C 68.386719 95.328125 68.152344 95.421875 67.914062 95.421875 C 67.683594 95.421875 67.445312 95.332031 67.265625 95.152344 Z M 69.136719 96.996094 L 68.742188 96.605469 C 68.382812 96.25 68.382812 95.671875 68.738281 95.300781 C 69.097656 94.9375 69.675781 94.9375 70.039062 95.296875 L 70.433594 95.683594 C 70.792969 96.039062 70.792969 96.621094 70.4375 96.988281 C 70.257812 97.167969 70.019531 97.261719 69.785156 97.261719 C 69.546875 97.261719 69.316406 97.167969 69.136719 96.996094 Z M 72.300781 98.824219 C 72.121094 99.007812 71.882812 99.101562 71.648438 99.101562 C 71.417969 99.101562 71.179688 99.011719 71 98.832031 L 70.605469 98.445312 C 70.246094 98.089844 70.246094 97.507812 70.601562 97.136719 C 70.960938 96.777344 71.542969 96.777344 71.902344 97.132812 L 72.296875 97.519531 C 72.652344 97.882812 72.65625 98.460938 72.300781 98.824219 Z M 72.46875 100.289062 C 72.109375 99.929688 72.109375 99.351562 72.464844 98.980469 C 72.824219 98.617188 73.40625 98.617188 73.765625 98.976562 L 74.160156 99.363281 C 74.519531 99.71875 74.519531 100.300781 74.164062 100.667969 C 73.984375 100.847656 73.746094 100.941406 73.511719 100.941406 C 73.28125 100.941406 73.042969 100.855469 72.863281 100.675781 Z M 74.339844 102.128906 C 73.976562 101.773438 73.976562 101.191406 74.332031 100.824219 C 74.695312 100.460938 75.273438 100.460938 75.636719 100.816406 L 76.027344 101.207031 C 76.390625 101.5625 76.390625 102.144531 76.035156 102.511719 C 75.855469 102.691406 75.617188 102.785156 75.378906 102.785156 C 75.148438 102.785156 74.914062 102.699219 74.730469 102.519531 Z M 77.890625 103.046875 C 78.253906 103.40625 78.253906 103.984375 77.898438 104.355469 C 77.71875 104.535156 77.480469 104.628906 77.242188 104.628906 C 77.011719 104.628906 76.777344 104.542969 76.59375 104.359375 L 76.203125 103.972656 C 75.839844 103.617188 75.839844 103.035156 76.195312 102.667969 C 76.558594 102.304688 77.136719 102.304688 77.5 102.660156 Z M 67.308594 97.90625 C 67.078125 97.90625 66.84375 97.820312 66.660156 97.636719 L 66.269531 97.25 C 65.90625 96.894531 65.90625 96.3125 66.261719 95.945312 C 66.625 95.582031 67.203125 95.582031 67.566406 95.9375 L 67.957031 96.324219 C 68.320312 96.683594 68.320312 97.261719 67.964844 97.632812 C 67.78125 97.8125 67.546875 97.90625 67.308594 97.90625 Z M 68.125 97.792969 C 68.480469 97.433594 69.0625 97.425781 69.429688 97.78125 L 69.820312 98.167969 C 70.183594 98.523438 70.1875 99.105469 69.832031 99.476562 C 69.652344 99.65625 69.414062 99.75 69.179688 99.75 C 68.949219 99.75 68.71875 99.664062 68.539062 99.488281 L 68.144531 99.101562 C 67.777344 98.742188 67.769531 98.15625 68.125 97.792969 Z M 70 100.929688 C 69.640625 100.574219 69.640625 99.992188 69.996094 99.625 C 70.355469 99.257812 70.9375 99.261719 71.296875 99.617188 L 71.691406 100.007812 C 72.050781 100.363281 72.050781 100.941406 71.695312 101.3125 C 71.515625 101.492188 71.28125 101.585938 71.042969 101.585938 C 70.8125 101.585938 70.574219 101.5 70.394531 101.316406 Z M 73.566406 103.148438 C 73.386719 103.328125 73.148438 103.421875 72.914062 103.421875 C 72.683594 103.421875 72.449219 103.335938 72.269531 103.160156 L 71.878906 102.773438 C 71.515625 102.417969 71.511719 101.835938 71.867188 101.46875 C 72.21875 101.105469 72.800781 101.097656 73.167969 101.457031 L 73.558594 101.84375 C 73.910156 102.207031 73.921875 102.785156 73.566406 103.148438 Z M 75.417969 103.691406 C 75.777344 104.046875 75.777344 104.628906 75.425781 105 C 75.242188 105.179688 75.007812 105.273438 74.769531 105.273438 C 74.539062 105.273438 74.300781 105.183594 74.121094 105.003906 L 73.730469 104.617188 C 73.367188 104.261719 73.367188 103.679688 73.722656 103.3125 C 74.085938 102.949219 74.664062 102.949219 75.023438 103.304688 Z M 69.230469 101.957031 C 69.046875 102.136719 68.8125 102.230469 68.574219 102.230469 C 68.34375 102.230469 68.113281 102.144531 67.933594 101.96875 L 67.539062 101.582031 C 67.179688 101.222656 67.171875 100.644531 67.527344 100.273438 C 67.882812 99.914062 68.460938 99.90625 68.832031 100.261719 L 69.222656 100.648438 C 69.578125 101.003906 69.585938 101.59375 69.230469 101.957031 Z M 71.085938 102.5 C 71.449219 102.855469 71.449219 103.4375 71.09375 103.804688 C 70.910156 103.984375 70.675781 104.078125 70.4375 104.078125 C 70.207031 104.078125 69.972656 103.992188 69.789062 103.8125 L 69.398438 103.421875 C 69.035156 103.066406 69.035156 102.488281 69.390625 102.117188 C 69.753906 101.753906 70.332031 101.753906 70.695312 102.113281 Z M 43.367188 97.121094 C 43.757812 97.4375 43.8125 98.027344 43.496094 98.414062 C 43.316406 98.636719 43.054688 98.75 42.785156 98.75 C 42.582031 98.75 42.375 98.679688 42.207031 98.542969 L 20.648438 80.867188 C 20.253906 80.550781 20.199219 79.960938 20.515625 79.574219 C 20.839844 79.179688 21.414062 79.117188 21.808594 79.445312 Z M 39.832031 101.449219 C 40.222656 101.769531 40.28125 102.355469 39.960938 102.742188 C 39.78125 102.96875 39.519531 103.078125 39.253906 103.078125 C 39.046875 103.078125 38.839844 103.011719 38.671875 102.875 L 17.113281 85.199219 C 16.722656 84.878906 16.667969 84.292969 16.984375 83.90625 C 17.308594 83.511719 17.886719 83.449219 18.273438 83.773438 Z M 37.019531 106.046875 C 37.425781 106.347656 37.511719 106.929688 37.207031 107.335938 C 37.027344 107.578125 36.753906 107.703125 36.472656 107.703125 C 36.28125 107.703125 36.085938 107.640625 35.925781 107.523438 L 17.140625 93.632812 C 16.730469 93.332031 16.648438 92.753906 16.949219 92.347656 C 17.246094 91.941406 17.828125 91.851562 18.230469 92.152344 Z M 135.414062 75.746094 C 134.144531 74.152344 132.125 73.339844 129.714844 73.398438 C 127.425781 73.472656 125.089844 74.410156 123.101562 76.070312 L 105.484375 91.898438 C 104.746094 92.566406 103.820312 92.910156 102.816406 92.816406 C 101.816406 92.738281 100.914062 92.257812 100.265625 91.472656 L 93.472656 83.15625 C 93.085938 82.710938 92.5 82.523438 91.941406 82.5625 L 79.382812 67.171875 L 92.394531 51.210938 C 93.066406 51.167969 93.722656 50.886719 94.183594 50.324219 L 105.234375 36.785156 C 106.105469 35.714844 105.945312 34.128906 104.878906 33.261719 L 102.046875 30.9375 C 101.53125 30.511719 100.875 30.328125 100.214844 30.378906 C 99.550781 30.449219 98.949219 30.765625 98.535156 31.285156 L 87.488281 44.824219 C 87.027344 45.386719 86.871094 46.09375 86.964844 46.761719 L 74.855469 61.621094 L 62.722656 46.75 C 62.816406 46.082031 62.65625 45.386719 62.199219 44.824219 L 51.15625 31.285156 C 50.730469 30.765625 50.132812 30.449219 49.472656 30.378906 C 48.8125 30.324219 48.160156 30.511719 47.640625 30.9375 L 44.8125 33.261719 C 44.292969 33.679688 43.976562 34.285156 43.90625 34.953125 C 43.839844 35.621094 44.039062 36.269531 44.460938 36.789062 L 55.5 50.328125 C 55.953125 50.886719 56.597656 51.160156 57.265625 51.210938 L 70.308594 67.199219 L 57.769531 82.5625 C 57.195312 82.519531 56.597656 82.707031 56.199219 83.175781 L 49.417969 91.472656 C 48.777344 92.265625 47.867188 92.738281 46.867188 92.816406 C 45.882812 92.910156 44.941406 92.558594 44.199219 91.890625 L 26.558594 76.050781 C 24.601562 74.410156 22.257812 73.464844 19.96875 73.398438 C 17.582031 73.296875 15.539062 74.152344 14.273438 75.734375 C 9.878906 81.082031 9.941406 89.074219 14.460938 96.632812 C 18.242188 102.140625 23.863281 106.605469 31.167969 109.894531 C 31.195312 109.910156 31.21875 109.914062 31.242188 109.925781 L 33.125 110.582031 C 34.820312 111.101562 36.496094 111.351562 38.105469 111.351562 C 42.070312 111.351562 45.621094 109.820312 47.957031 106.953125 L 62.867188 88.671875 C 63.257812 88.214844 63.347656 87.589844 63.179688 87.015625 L 74.84375 72.757812 L 86.480469 87.023438 C 86.324219 87.585938 86.40625 88.210938 86.796875 88.660156 L 101.726562 106.953125 C 104.0625 109.816406 107.601562 111.351562 111.578125 111.351562 C 113.191406 111.351562 114.886719 111.097656 116.59375 110.578125 L 118.445312 109.933594 C 118.472656 109.921875 118.496094 109.914062 118.519531 109.902344 C 125.824219 106.609375 131.441406 102.148438 135.261719 96.589844 C 139.742188 89.070312 139.804688 81.082031 135.414062 75.746094 Z M 72.113281 66.503906 C 72.101562 66.492188 72.101562 66.472656 72.089844 66.460938 C 72.082031 66.457031 72.078125 66.460938 72.070312 66.457031 L 59.121094 50.585938 L 61.726562 48.449219 L 90.292969 83.460938 L 87.6875 85.597656 Z M 88.910156 46 L 99.953125 32.460938 C 100.066406 32.324219 100.222656 32.234375 100.402344 32.21875 C 100.582031 32.222656 100.75 32.253906 100.886719 32.367188 L 103.71875 34.691406 C 104 34.921875 104.042969 35.339844 103.8125 35.628906 L 92.761719 49.167969 C 92.539062 49.449219 92.132812 49.488281 91.84375 49.269531 L 88.992188 46.929688 C 88.859375 46.820312 88.773438 46.664062 88.761719 46.492188 C 88.746094 46.304688 88.796875 46.132812 88.910156 46 Z M 87.960938 48.457031 L 90.550781 50.574219 L 78.203125 65.71875 L 76.046875 63.074219 Z M 45.875 35.621094 C 45.765625 35.484375 45.714844 35.308594 45.734375 35.136719 C 45.75 34.960938 45.832031 34.796875 45.96875 34.683594 L 48.800781 32.359375 C 48.917969 32.261719 49.066406 32.210938 49.214844 32.210938 L 49.285156 32.210938 C 49.460938 32.230469 49.621094 32.316406 49.734375 32.453125 L 60.777344 45.992188 C 60.890625 46.132812 60.941406 46.304688 60.921875 46.480469 C 60.902344 46.65625 60.820312 46.8125 60.683594 46.925781 L 57.847656 49.25 C 57.566406 49.480469 57.15625 49.4375 56.917969 49.15625 Z M 46.535156 105.785156 C 43.730469 109.234375 38.796875 110.390625 33.691406 108.828125 L 31.890625 108.199219 C 24.917969 105.042969 19.5625 100.800781 16.011719 95.632812 C 11.933594 88.808594 11.816406 81.632812 15.707031 76.894531 C 16.609375 75.769531 18.15625 75.160156 19.917969 75.234375 C 21.800781 75.289062 23.738281 76.082031 25.359375 77.4375 L 42.976562 93.257812 C 44.09375 94.265625 45.527344 94.777344 47.011719 94.652344 C 48.519531 94.539062 49.878906 93.820312 50.84375 92.632812 L 57.511719 84.304688 C 57.519531 84.3125 57.519531 84.316406 57.519531 84.316406 L 61.4375 87.53125 Z M 61.972656 85.582031 L 59.394531 83.46875 L 71.492188 68.648438 L 73.660156 71.304688 Z M 133.707031 95.589844 C 130.125 100.804688 124.769531 105.046875 117.796875 108.203125 L 116.019531 108.824219 C 110.882812 110.402344 105.957031 109.234375 103.144531 105.785156 L 88.144531 87.605469 L 92.089844 84.367188 L 98.839844 92.632812 C 99.804688 93.820312 101.167969 94.539062 102.671875 94.652344 C 104.152344 94.753906 105.59375 94.265625 106.703125 93.265625 L 124.296875 77.464844 C 125.941406 76.089844 127.878906 75.296875 129.761719 75.242188 C 131.636719 75.171875 133.070312 75.769531 133.980469 76.910156 C 137.871094 81.636719 137.75 88.8125 133.707031 95.589844 Z M 129.035156 80.871094 L 107.476562 98.542969 C 107.308594 98.683594 107.101562 98.75 106.894531 98.75 C 106.628906 98.75 106.367188 98.636719 106.183594 98.414062 C 105.859375 98.019531 105.921875 97.4375 106.316406 97.121094 L 127.875 79.445312 C 128.265625 79.121094 128.847656 79.175781 129.164062 79.574219 C 129.488281 79.964844 129.425781 80.542969 129.035156 80.871094 Z M 132.574219 85.199219 L 111.015625 102.875 C 110.847656 103.011719 110.640625 103.082031 110.4375 103.082031 C 110.167969 103.082031 109.90625 102.96875 109.726562 102.742188 C 109.402344 102.351562 109.464844 101.769531 109.855469 101.449219 L 131.414062 83.773438 C 131.808594 83.449219 132.386719 83.503906 132.703125 83.90625 C 133.023438 84.292969 132.964844 84.878906 132.574219 85.199219 Z M 132.734375 92.339844 C 133.035156 92.753906 132.953125 93.328125 132.542969 93.628906 L 113.761719 107.515625 C 113.601562 107.640625 113.410156 107.699219 113.214844 107.699219 C 112.933594 107.699219 112.660156 107.574219 112.480469 107.328125 C 112.175781 106.921875 112.261719 106.347656 112.667969 106.042969 L 131.457031 92.140625 C 131.855469 91.839844 132.433594 91.933594 132.734375 92.339844 Z M 132.734375 92.339844 " fill-opacity="1" fill-rule="nonzero"/></svg>