<svg xmlns="http://www.w3.org/2000/svg" xmlns:xlink="http://www.w3.org/1999/xlink" width="200" zoomAndPan="magnify" viewBox="0 0 150 149.999998" height="200" preserveAspectRatio="xMidYMid meet" version="1.0"><path fill="#000000" d="M 116.765625 55.371094 C 116.941406 53.078125 117.324219 46.664062 116.691406 40.328125 C 116.445312 37.875 115.964844 35.433594 115.265625 33.078125 C 114.664062 31.054688 114.523438 22.265625 114.648438 16.695312 C 114.671875 15.820312 114.34375 15 113.734375 14.375 C 113.121094 13.75 112.300781 13.40625 111.421875 13.40625 L 98.679688 13.40625 C 97.800781 13.40625 96.980469 13.75 96.371094 14.375 C 95.757812 15 95.433594 15.820312 95.453125 16.695312 C 95.582031 22.261719 95.441406 31.054688 94.839844 33.078125 C 94.140625 35.433594 93.660156 37.875 93.414062 40.328125 C 92.777344 46.664062 93.164062 53.078125 93.339844 55.371094 C 87.332031 59.546875 83.773438 66.320312 83.773438 73.667969 L 83.773438 121.183594 C 83.773438 127.5625 88.976562 132.753906 95.371094 132.753906 L 114.734375 132.753906 C 121.128906 132.753906 126.332031 127.5625 126.332031 121.183594 L 126.332031 73.667969 C 126.332031 66.320312 122.773438 59.546875 116.765625 55.371094 Z M 86.691406 82.628906 L 123.414062 82.628906 L 123.414062 101.179688 L 86.691406 101.179688 Z M 98.457031 16.410156 C 98.496094 16.367188 98.570312 16.316406 98.679688 16.316406 L 111.421875 16.316406 C 111.535156 16.316406 111.605469 16.367188 111.648438 16.410156 C 111.6875 16.449219 111.734375 16.523438 111.730469 16.625 C 111.710938 17.523438 111.695312 18.886719 111.691406 20.464844 L 98.414062 20.464844 C 98.410156 18.886719 98.394531 17.523438 98.371094 16.625 C 98.371094 16.523438 98.417969 16.449219 98.457031 16.410156 Z M 95.652344 57.332031 C 96.113281 57.035156 96.371094 56.507812 96.316406 55.964844 C 96.308594 55.886719 95.570312 48.074219 96.316406 40.617188 C 96.542969 38.347656 96.988281 36.085938 97.636719 33.902344 C 98.152344 32.164062 98.34375 27.550781 98.394531 23.375 L 111.710938 23.375 C 111.761719 27.554688 111.949219 32.167969 112.46875 33.902344 C 113.113281 36.085938 113.558594 38.347656 113.789062 40.617188 C 114.535156 48.066406 113.792969 55.886719 113.785156 55.964844 C 113.734375 56.507812 113.992188 57.035156 114.453125 57.332031 C 120.0625 60.914062 123.414062 67.019531 123.414062 73.667969 L 123.414062 79.71875 L 86.691406 79.71875 L 86.691406 73.667969 C 86.691406 67.019531 90.042969 60.914062 95.652344 57.332031 Z M 114.734375 129.84375 L 95.371094 129.84375 C 90.585938 129.84375 86.691406 125.957031 86.691406 121.183594 L 86.691406 104.09375 L 123.414062 104.09375 L 123.414062 121.183594 C 123.414062 125.957031 119.519531 129.84375 114.734375 129.84375 Z M 114.734375 129.84375 " fill-opacity="1" fill-rule="nonzero"/><path fill="#000000" d="M 73.871094 71.972656 C 73.871094 67.277344 73.195312 62.761719 71.863281 58.550781 C 71.667969 57.945312 71.105469 57.535156 70.46875 57.535156 L 27.136719 57.535156 C 26.5 57.535156 25.9375 57.945312 25.742188 58.550781 C 24.410156 62.761719 23.734375 67.277344 23.734375 71.972656 C 23.734375 88.585938 32.523438 102.445312 44.109375 105.449219 L 44.109375 118.667969 C 44.109375 121.675781 41.882812 124.191406 38.925781 124.515625 C 30.910156 125.40625 29.828125 126.972656 29.828125 128.386719 C 29.828125 132.332031 43.09375 132.753906 48.796875 132.753906 C 54.5 132.753906 67.761719 132.332031 67.761719 128.386719 C 67.761719 126.972656 66.683594 125.410156 58.683594 124.515625 C 55.71875 124.191406 53.484375 121.675781 53.484375 118.667969 L 53.484375 105.457031 C 65.074219 102.46875 73.871094 88.601562 73.871094 71.972656 Z M 26.652344 71.972656 C 26.652344 67.953125 27.179688 64.082031 28.21875 60.445312 L 69.386719 60.445312 C 70.425781 64.082031 70.953125 67.953125 70.953125 71.972656 C 70.953125 89.171875 61.023438 103.160156 48.8125 103.160156 C 36.59375 103.160156 26.652344 89.171875 26.652344 71.972656 Z M 58.359375 127.410156 C 61.132812 127.71875 62.789062 128.089844 63.757812 128.390625 C 61.496094 129.066406 56.449219 129.84375 48.796875 129.84375 C 41.144531 129.84375 36.097656 129.066406 33.832031 128.390625 C 34.804688 128.089844 36.464844 127.71875 39.25 127.410156 C 43.683594 126.917969 47.027344 123.160156 47.027344 118.667969 L 47.027344 105.949219 C 47.617188 106.007812 48.210938 106.074219 48.8125 106.074219 C 49.40625 106.074219 49.984375 106.007812 50.566406 105.953125 L 50.566406 118.667969 C 50.566406 123.164062 53.917969 126.921875 58.359375 127.410156 Z M 58.359375 127.410156 " fill-opacity="1" fill-rule="nonzero"/><path fill="#000000" d="M 68.035156 71.972656 C 68.035156 71.453125 67.753906 70.976562 67.304688 70.71875 C 66.855469 70.457031 66.292969 70.457031 65.84375 70.714844 C 65.78125 70.75 59.730469 74.097656 49.261719 70.59375 C 37.433594 66.632812 30.570312 70.550781 30.285156 70.722656 C 29.839844 70.984375 29.570312 71.457031 29.570312 71.972656 C 29.570312 87.300781 38.382812 100.25 48.8125 100.25 C 59.234375 100.25 68.035156 87.300781 68.035156 71.972656 Z M 32.496094 72.898438 C 34.402344 72.136719 39.945312 70.542969 48.332031 73.351562 C 56.359375 76.042969 62.105469 75.101562 65.054688 74.167969 C 64.3125 86.9375 57.179688 97.339844 48.8125 97.339844 C 40.160156 97.339844 32.824219 86.238281 32.496094 72.898438 Z M 32.496094 72.898438 " fill-opacity="1" fill-rule="nonzero"/></svg>