<svg xmlns="http://www.w3.org/2000/svg" xmlns:xlink="http://www.w3.org/1999/xlink" width="200" zoomAndPan="magnify" viewBox="0 0 150 149.999998" height="200" preserveAspectRatio="xMidYMid meet" version="1.0"><path fill="#000000" d="M 99.941406 32.445312 C 98.09375 31.613281 97.355469 30.65625 95.382812 28.09375 L 95.164062 27.8125 C 93.351562 25.457031 91.597656 25.609375 90.199219 26.183594 C 90.078125 26.074219 89.9375 25.992188 89.769531 25.949219 C 89.328125 25.855469 87.070312 25.457031 85.988281 26.71875 C 85.894531 26.828125 85.804688 26.960938 85.726562 27.113281 C 85.597656 27.121094 85.472656 27.164062 85.355469 27.226562 C 85.222656 27.300781 82.054688 29.042969 82.054688 32.6875 C 82.054688 33.742188 81.796875 34.105469 81.53125 34.5 C 80.847656 35.484375 80.6875 36.277344 81.625 38.152344 C 82.542969 39.984375 83.667969 41.207031 84.875 41.714844 C 84.878906 41.882812 84.875 42.042969 84.859375 42.175781 C 84.148438 41.96875 82.738281 41.335938 81.839844 40.929688 C 81.046875 40.574219 80.28125 40.230469 79.726562 40.019531 C 78.117188 39.414062 73.035156 37.5 72.394531 37.257812 C 71.71875 36.882812 60.808594 30.808594 57.660156 28.472656 C 56.484375 27.601562 55.289062 26.878906 54.234375 26.242188 C 52.773438 25.355469 51.121094 24.351562 51.078125 23.734375 C 51.074219 23.675781 50.660156 17.710938 48.964844 16.472656 C 48.59375 16.203125 48.152344 16.105469 47.726562 16.214844 C 46.347656 16.5625 46.042969 18.441406 45.71875 20.441406 C 45.605469 21.132812 45.4375 22.1875 45.367188 22.351562 C 45.148438 22.46875 44.328125 22.453125 43.882812 22.445312 C 42.851562 22.421875 41.960938 22.410156 41.578125 23.191406 C 41.449219 23.453125 41.316406 23.988281 41.847656 24.628906 C 42.511719 25.441406 43.632812 25.761719 44.722656 26.078125 C 45.660156 26.351562 46.632812 26.628906 47.167969 27.167969 C 48.367188 28.363281 61.289062 39.824219 70.210938 43.554688 L 70.054688 44.648438 C 69.992188 45.058594 70.203125 45.457031 70.5625 45.648438 C 72.148438 46.476562 74.007812 47.566406 74.617188 48.070312 C 74.597656 48.140625 74.566406 48.21875 74.546875 48.289062 C 74.308594 49.015625 73.902344 50.230469 73.902344 52.710938 C 73.902344 56.203125 73.902344 58.125 71.246094 61.171875 C 71.242188 61.179688 71.242188 61.183594 71.238281 61.1875 C 71.230469 61.191406 71.222656 61.199219 71.21875 61.203125 L 70.054688 62.65625 C 69.132812 63.195312 65.566406 65.683594 62.082031 73.515625 C 59.59375 79.105469 56.496094 92.832031 54.230469 102.855469 C 52.960938 108.480469 51.863281 113.332031 51.34375 114.679688 C 49.925781 118.320312 51.390625 120.894531 52.015625 121.996094 C 52.09375 122.128906 52.15625 122.238281 52.183594 122.296875 C 52.320312 122.691406 52.546875 123.027344 52.859375 123.316406 C 52.585938 123.667969 52.074219 124.28125 51.121094 125.277344 C 50.714844 125.703125 50.289062 126.101562 49.902344 126.464844 C 48.617188 127.671875 47.605469 128.621094 48.003906 129.765625 C 48.371094 130.824219 49.722656 131.144531 51.636719 131.308594 C 53.347656 131.457031 54.59375 131.554688 55.558594 131.554688 C 57.464844 131.554688 58.3125 131.171875 59.648438 130.003906 L 59.753906 129.910156 C 60.84375 128.960938 62.082031 127.878906 62.148438 126.332031 C 62.183594 125.546875 61.902344 124.75 61.316406 123.921875 C 61.410156 123.859375 61.511719 123.800781 61.597656 123.726562 C 62.746094 122.722656 62.941406 121.171875 62.980469 120.09375 C 63.074219 117.714844 68.152344 97.105469 70.191406 92.390625 C 71.082031 90.324219 71.8125 88.375 72.351562 86.820312 C 75.132812 90.410156 77.46875 97.40625 78.316406 101.621094 C 79.144531 105.761719 78.945312 117.675781 78.726562 121.722656 C 78.636719 123.414062 79.339844 124.375 79.949219 124.882812 C 80.035156 124.953125 80.140625 125.003906 80.234375 125.066406 C 79.738281 125.898438 79.125 127.253906 79.390625 128.550781 C 79.570312 129.40625 80.109375 130.101562 80.953125 130.558594 C 82.089844 131.175781 82.726562 131.417969 83.140625 131.578125 C 83.613281 131.753906 83.660156 131.773438 84.128906 132.285156 C 84.941406 133.175781 87.273438 134.414062 89.089844 134.414062 C 89.40625 134.414062 89.710938 134.375 89.988281 134.292969 C 90.820312 134.035156 91.371094 133.390625 91.492188 132.515625 C 91.710938 130.992188 90.910156 129.484375 90.058594 127.886719 C 89.554688 126.945312 89.050781 125.988281 88.773438 125.042969 C 91.066406 123.757812 91.152344 119.867188 91.285156 112.84375 C 91.332031 110.613281 91.375 108.085938 91.503906 105.21875 C 91.855469 97.160156 89.8125 91.855469 88.179688 87.597656 C 87.316406 85.351562 86.570312 83.414062 86.464844 81.664062 C 86.179688 76.976562 84.832031 72.691406 84.464844 71.597656 L 84.871094 69.644531 C 85.988281 68.78125 89.886719 65.632812 91.914062 62.074219 C 93.628906 59.0625 94.660156 57.226562 95.054688 56.515625 L 100.050781 54.917969 C 100.40625 54.804688 100.664062 54.5 100.710938 54.128906 C 100.71875 54.097656 100.746094 53.894531 100.777344 53.5625 C 100.96875 53.550781 101.160156 53.488281 101.320312 53.359375 C 102.261719 52.613281 110.519531 45.964844 111.214844 42.398438 C 112.046875 38.113281 101.960938 33.351562 99.933594 32.441406 Z M 83.359375 37.28125 C 82.773438 36.109375 82.859375 35.980469 83.121094 35.605469 C 83.46875 35.105469 84 34.34375 84 32.6875 C 84 30.984375 85.027344 29.886719 85.703125 29.34375 C 85.707031 29.359375 85.707031 29.367188 85.710938 29.382812 C 85.839844 30.363281 86.847656 36.273438 92.3125 37.96875 C 92.40625 38 92.503906 38.015625 92.597656 38.015625 C 93.015625 38.015625 93.402344 37.746094 93.53125 37.332031 C 93.6875 36.816406 93.402344 36.273438 92.886719 36.117188 C 89.957031 35.207031 88.636719 32.617188 88.054688 30.835938 C 88.546875 31.519531 89.203125 32.210938 89.914062 32.914062 L 90.050781 33.054688 C 91.203125 34.203125 93.796875 34.785156 94.816406 34.972656 C 95.234375 35.488281 95.710938 36 96.21875 36.507812 C 96.199219 36.648438 96.199219 36.792969 96.246094 36.941406 C 96.597656 38.0625 96.542969 38.945312 96.074219 39.640625 C 95.273438 40.84375 93.46875 41.226562 92.832031 41.324219 C 92.804688 41.042969 92.785156 40.753906 92.785156 40.472656 C 92.785156 39.933594 92.351562 39.5 91.8125 39.5 C 91.277344 39.5 90.839844 39.933594 90.839844 40.472656 C 90.839844 42.457031 91.433594 44.378906 91.8125 45.40625 C 91.175781 45.800781 90.066406 46.347656 88.875 46.230469 C 87.832031 46.121094 86.886719 45.511719 86.050781 44.421875 C 85.945312 44.285156 85.816406 44.183594 85.671875 44.125 C 85.722656 44.105469 85.773438 44.085938 85.820312 44.058594 C 86.632812 43.652344 86.8125 42.667969 86.820312 41.917969 C 88.101562 41.644531 89.304688 40.59375 90.402344 38.761719 C 90.679688 38.300781 90.53125 37.703125 90.070312 37.425781 C 89.609375 37.148438 89.011719 37.300781 88.734375 37.761719 C 88.105469 38.8125 87.148438 40.046875 86.152344 40.046875 L 86.109375 40.046875 C 85.238281 40.011719 84.210938 38.984375 83.363281 37.292969 Z M 48.539062 25.789062 C 47.730469 24.980469 46.613281 24.605469 45.578125 24.296875 C 46.042969 24.203125 46.464844 24.027344 46.761719 23.683594 C 47.230469 23.152344 47.398438 22.222656 47.636719 20.746094 C 47.738281 20.132812 47.894531 19.144531 48.09375 18.53125 C 48.550781 19.625 49.019531 22.097656 49.128906 23.859375 C 49.234375 25.492188 50.992188 26.558594 53.21875 27.910156 C 54.234375 28.523438 55.390625 29.226562 56.488281 30.042969 C 59.4375 32.226562 68.507812 37.328125 70.914062 38.667969 L 70.496094 41.550781 C 61.875 37.753906 49.6875 26.941406 48.535156 25.789062 Z M 60.199219 126.25 C 60.171875 126.960938 59.34375 127.683594 58.472656 128.445312 L 58.363281 128.539062 C 56.992188 129.738281 56.910156 129.804688 51.792969 129.371094 C 50.832031 129.292969 50.308594 129.175781 50.03125 129.089844 C 50.300781 128.753906 50.824219 128.265625 51.230469 127.882812 C 51.640625 127.496094 52.089844 127.070312 52.523438 126.621094 C 53.621094 125.472656 54.246094 124.734375 54.613281 124.207031 C 55.332031 124.414062 56.210938 124.566406 57.308594 124.671875 C 57.683594 124.707031 58.035156 124.726562 58.367188 124.726562 C 58.738281 124.726562 59.082031 124.699219 59.402344 124.65625 C 59.9375 125.273438 60.21875 125.8125 60.199219 126.25 Z M 89.566406 132.234375 C 89.546875 132.386719 89.515625 132.398438 89.417969 132.425781 C 88.511719 132.710938 86.207031 131.664062 85.570312 130.96875 C 84.855469 130.1875 84.542969 130.019531 83.839844 129.75 C 83.449219 129.601562 82.910156 129.394531 81.882812 128.839844 C 81.445312 128.605469 81.34375 128.347656 81.304688 128.148438 C 81.148438 127.417969 81.699219 126.367188 82.074219 125.789062 C 82.570312 125.882812 83.105469 125.949219 83.707031 125.949219 C 84.648438 125.949219 85.71875 125.828125 86.90625 125.597656 C 87.242188 126.730469 87.8125 127.8125 88.335938 128.796875 C 89.035156 130.101562 89.695312 131.339844 89.566406 132.234375 Z M 84.519531 81.785156 C 84.640625 83.832031 85.441406 85.902344 86.359375 88.296875 C 87.9375 92.386719 89.886719 97.476562 89.554688 105.132812 C 89.433594 108.027344 89.382812 110.5625 89.339844 112.804688 C 89.214844 119.226562 89.140625 123.101562 87.410156 123.503906 C 84.390625 124.207031 82.125 124.167969 81.199219 123.390625 C 80.945312 123.175781 80.613281 122.785156 80.667969 121.828125 C 80.84375 118.640625 81.15625 105.90625 80.222656 101.238281 C 79.332031 96.777344 76.601562 88.375 73.066406 84.660156 C 73.304688 83.902344 73.4375 83.4375 73.453125 83.382812 C 73.601562 82.863281 73.296875 82.328125 72.777344 82.179688 C 72.261719 82.039062 71.722656 82.335938 71.574219 82.855469 C 71.5625 82.894531 70.386719 87.027344 68.398438 91.617188 C 66.4375 96.160156 61.144531 117.0625 61.027344 120.019531 C 60.984375 121.164062 60.753906 121.875 60.308594 122.265625 C 59.808594 122.703125 58.859375 122.859375 57.480469 122.730469 C 55.445312 122.542969 54.179688 122.160156 54.023438 121.679688 C 53.972656 121.53125 53.859375 121.3125 53.699219 121.03125 C 53.128906 120.027344 52.066406 118.15625 53.144531 115.375 C 53.71875 113.902344 54.78125 109.214844 56.117188 103.277344 C 58.363281 93.335938 61.4375 79.714844 63.851562 74.300781 C 67.472656 66.167969 71.070312 64.304688 71.097656 64.289062 C 71.230469 64.226562 71.351562 64.132812 71.445312 64.019531 L 71.773438 63.613281 C 72.964844 65.554688 75.949219 68.757812 82.820312 69.882812 L 82.492188 71.457031 C 82.457031 71.628906 82.46875 71.8125 82.527344 71.980469 C 82.542969 72.03125 84.203125 76.738281 84.507812 81.78125 Z M 98.851562 53.261719 L 94.09375 54.777344 C 93.855469 54.851562 93.660156 55.015625 93.539062 55.234375 C 93.539062 55.234375 92.464844 57.164062 90.21875 61.113281 C 88.417969 64.285156 84.792969 67.238281 83.722656 68.074219 C 76.101562 67.011719 73.714844 63.300781 73.101562 61.996094 C 75.847656 58.636719 75.847656 56.125 75.847656 52.710938 C 75.847656 50.550781 76.175781 49.554688 76.394531 48.898438 C 76.53125 48.476562 76.660156 48.082031 76.585938 47.625 C 76.519531 47.226562 76.410156 46.566406 72.078125 44.246094 L 72.773438 39.484375 C 74.523438 40.140625 77.804688 41.378906 79.039062 41.84375 C 79.566406 42.042969 80.28125 42.363281 81.03125 42.703125 C 82.910156 43.550781 84.027344 44.03125 84.796875 44.160156 C 84.757812 44.179688 84.722656 44.203125 84.6875 44.234375 C 84.261719 44.558594 84.175781 45.167969 84.503906 45.597656 C 85.683594 47.140625 87.089844 48.007812 88.695312 48.171875 C 91.054688 48.414062 92.988281 47.011719 93.511719 46.601562 C 94.707031 46.128906 96.953125 46.109375 98.265625 46.15625 C 99.078125 49.144531 98.960938 52.054688 98.855469 53.269531 Z M 93.574219 44.539062 C 93.449219 44.1875 93.3125 43.742188 93.183594 43.234375 C 94.144531 43.074219 96.492188 42.523438 97.695312 40.726562 C 98.148438 40.046875 98.371094 39.28125 98.398438 38.441406 C 100.074219 39.816406 101.828125 41.027344 103.164062 41.894531 C 102.269531 42.734375 100.667969 44.316406 99.964844 45.019531 C 99.953125 44.984375 99.945312 44.949219 99.933594 44.914062 C 99.816406 44.539062 99.480469 44.273438 99.082031 44.242188 C 98.703125 44.214844 95.734375 44.003906 93.578125 44.539062 Z M 100.875 51.222656 C 100.867188 50.03125 100.761719 48.566406 100.460938 47.011719 C 100.648438 46.976562 100.832031 46.910156 100.980469 46.761719 C 101.863281 45.878906 104.257812 43.507812 104.875 42.972656 C 105.152344 43.140625 105.335938 43.25 105.378906 43.273438 C 105.84375 43.546875 106.4375 43.382812 106.707031 42.917969 C 106.972656 42.453125 106.816406 41.859375 106.355469 41.585938 C 106.28125 41.546875 99.082031 37.351562 96.128906 33.484375 C 95.976562 33.285156 95.753906 33.152344 95.507812 33.113281 C 94.296875 32.925781 92.128906 32.367188 91.433594 31.675781 L 91.296875 31.535156 C 89.875 30.121094 89.171875 29.210938 89.253906 28.84375 C 89.476562 28.730469 89.699219 28.613281 89.929688 28.488281 C 91.425781 27.667969 92.257812 27.21875 93.625 29 L 93.839844 29.28125 C 95.84375 31.882812 96.847656 33.1875 99.140625 34.222656 C 103.652344 36.246094 109.6875 40.089844 109.308594 42.035156 C 108.921875 44.039062 104.214844 48.480469 100.875 51.226562 Z M 100.875 51.222656 " fill-opacity="1" fill-rule="nonzero"/></svg>