<svg xmlns="http://www.w3.org/2000/svg" xmlns:xlink="http://www.w3.org/1999/xlink" width="200" zoomAndPan="magnify" viewBox="0 0 150 149.999998" height="200" preserveAspectRatio="xMidYMid meet" version="1.0"><path fill="#000000" d="M 70.597656 93.855469 C 80.195312 91.652344 86.242188 82.121094 84.011719 72.539062 C 83.828125 71.757812 83.238281 71.132812 82.464844 70.90625 C 81.6875 70.679688 80.855469 70.898438 80.277344 71.460938 C 78.640625 73.082031 74.066406 77.027344 67.066406 78.707031 C 59.589844 80.496094 53.894531 78.566406 52.027344 77.933594 C 51.261719 77.675781 50.417969 77.851562 49.820312 78.386719 C 49.21875 78.929688 48.960938 79.75 49.140625 80.535156 C 51.378906 90.207031 61.152344 96.035156 70.597656 93.855469 Z M 55.03125 83.316406 C 59.398438 84.160156 63.773438 84.0625 68.101562 83.027344 C 73.238281 81.796875 77.257812 79.5 79.988281 77.503906 C 79.578125 83.324219 75.421875 88.191406 69.597656 89.527344 C 64.234375 90.765625 58.175781 88.613281 55.027344 83.316406 Z M 55.03125 83.316406 " fill-opacity="1" fill-rule="nonzero"/><path fill="#000000" d="M 51.070312 59.257812 C 51.964844 58.414062 52.007812 57.007812 51.164062 56.117188 C 48.394531 53.1875 44.261719 51.9375 40.382812 52.863281 C 34.089844 54.359375 32.167969 60.433594 32.148438 60.492188 C 31.789062 61.667969 32.453125 62.910156 33.632812 63.265625 C 34.796875 63.621094 36.03125 62.972656 36.402344 61.8125 C 36.453125 61.671875 37.75 58.0625 41.414062 57.1875 C 43.785156 56.621094 46.21875 57.363281 47.929688 59.167969 C 48.769531 60.058594 50.175781 60.097656 51.070312 59.257812 Z M 51.070312 59.257812 " fill-opacity="1" fill-rule="nonzero"/><path fill="#000000" d="M 73.539062 54.371094 C 74.476562 54.371094 75.355469 53.773438 75.652344 52.828125 C 75.667969 52.789062 76.960938 49.070312 80.671875 48.1875 C 83.042969 47.621094 85.480469 48.359375 87.1875 50.167969 C 88.027344 51.058594 89.4375 51.101562 90.332031 50.261719 C 91.226562 49.417969 91.269531 48.011719 90.425781 47.117188 C 87.65625 44.1875 83.523438 42.941406 79.640625 43.867188 C 73.421875 45.34375 71.492188 51.222656 71.414062 51.46875 C 70.957031 52.894531 72.019531 54.371094 73.539062 54.371094 Z M 73.539062 54.371094 " fill-opacity="1" fill-rule="nonzero"/><path fill="#000000" d="M 118.402344 50.019531 C 113.144531 49.242188 107.734375 48.582031 102.304688 48.042969 L 98.988281 33.78125 C 97.15625 25.914062 89.535156 20.75 81.453125 21.953125 C 64.5625 24.472656 46.460938 28.535156 29.164062 33.933594 C 21.386719 36.363281 16.789062 44.308594 18.625 52.207031 L 23.167969 71.742188 C 26.953125 88.003906 38.007812 102.113281 53.804688 109.539062 C 58.417969 118.683594 65.449219 126.371094 74.183594 131.804688 C 79.191406 134.917969 88.136719 136.414062 96.992188 133.476562 C 105.558594 130.636719 113.394531 124.242188 120.289062 114.46875 C 126.117188 106.199219 129.570312 96.503906 130.277344 86.433594 L 131.6875 66.433594 C 132.253906 58.355469 126.464844 51.214844 118.402344 50.023438 Z M 27.484375 70.742188 L 22.941406 51.207031 C 21.644531 45.617188 24.957031 39.886719 30.484375 38.160156 C 46.421875 33.183594 64.253906 28.996094 82.109375 26.332031 C 87.851562 25.476562 93.363281 29.191406 94.664062 34.785156 L 99.207031 54.320312 C 103.53125 72.902344 97.082031 92.152344 82.816406 104.496094 C 77.738281 108.878906 70.835938 110.441406 64.390625 108.71875 C 45.667969 103.710938 31.710938 88.898438 27.488281 70.738281 Z M 100.542969 102.832031 C 97.640625 110.09375 89.359375 112.992188 82.699219 110.066406 C 85.0625 108.585938 87.1875 106.613281 89.125 104.625 C 93.871094 104.785156 97.757812 103.839844 100.542969 102.832031 Z M 127.261719 66.117188 L 125.851562 86.121094 C 125.203125 95.386719 122.023438 104.304688 116.660156 111.914062 C 110.328125 120.898438 103.242188 126.738281 95.59375 129.273438 C 84.574219 132.925781 76.605469 128.089844 76.527344 128.039062 C 69.996094 123.980469 64.5 118.542969 60.386719 112.136719 C 61.332031 112.445312 62.285156 112.730469 63.246094 112.988281 C 68.019531 114.261719 73.109375 114.089844 77.867188 112.398438 C 80.988281 114.589844 84.609375 115.617188 87.992188 115.617188 C 90.53125 115.617188 95.449219 115.054688 99.816406 111.285156 C 105 106.808594 105.785156 100.863281 105.90625 99.152344 C 105.960938 98.351562 105.578125 97.582031 104.90625 97.148438 C 104.234375 96.710938 103.378906 96.667969 102.664062 97.042969 C 101.359375 97.726562 98 99.484375 93.144531 100.042969 C 98.539062 93.164062 102.226562 85.128906 103.921875 76.519531 C 105.578125 75.472656 107.945312 74.847656 109.839844 74.992188 C 113.632812 75.289062 115.492188 78.742188 115.5 78.761719 C 116.042969 79.859375 117.375 80.300781 118.472656 79.761719 C 119.570312 79.21875 120.019531 77.890625 119.476562 76.796875 C 119.449219 76.742188 116.570312 71.078125 110.1875 70.582031 C 108.433594 70.445312 106.5 70.726562 104.695312 71.324219 C 105.707031 61.246094 103.414062 52.949219 103.359375 52.605469 C 108.21875 53.105469 113.046875 53.710938 117.753906 54.402344 C 123.488281 55.246094 127.664062 60.390625 127.261719 66.117188 Z M 127.261719 66.117188 " fill-opacity="1" fill-rule="nonzero"/></svg>