<svg xmlns="http://www.w3.org/2000/svg" xmlns:xlink="http://www.w3.org/1999/xlink" width="200" zoomAndPan="magnify" viewBox="0 0 150 149.999998" height="200" preserveAspectRatio="xMidYMid meet" version="1.0"><path fill="#000000" d="M 77.902344 66.152344 C 77.921875 66.175781 77.941406 66.203125 77.960938 66.234375 L 82.539062 72.421875 L 96.78125 73.777344 C 98.375 73.996094 99.929688 73.167969 100.632812 71.71875 C 101.167969 70.640625 101.285156 69.398438 100.960938 68.242188 C 100.546875 66.6875 99.179688 65.582031 97.570312 65.496094 L 87.554688 64.546875 L 87.558594 64.546875 C 87.253906 64.539062 86.96875 64.402344 86.78125 64.167969 L 77.644531 52.996094 C 77.609375 52.953125 77.578125 52.910156 77.550781 52.867188 C 76.40625 51.363281 74.789062 50.292969 72.960938 49.816406 C 71.8125 49.488281 70.613281 49.390625 69.433594 49.527344 C 68.3125 49.644531 67.242188 50.039062 66.3125 50.671875 C 65.570312 51.1875 64.960938 51.871094 64.53125 52.664062 C 64.5 52.722656 64.472656 52.78125 64.4375 52.832031 C 64.207031 53.28125 64.023438 53.746094 63.890625 54.230469 L 57.265625 77.910156 C 57.253906 77.945312 57.242188 77.988281 57.226562 78.027344 L 55.90625 82.742188 L 55.910156 82.742188 C 55.695312 83.476562 55.605469 84.246094 55.640625 85.007812 C 55.679688 85.699219 55.835938 86.371094 56.105469 87.003906 C 56.210938 87.195312 56.246094 87.417969 56.21875 87.636719 L 54.339844 100.65625 L 54.339844 100.652344 C 54.320312 100.785156 54.273438 100.917969 54.203125 101.035156 L 42.347656 120.902344 C 41.234375 122.785156 41.847656 125.222656 43.726562 126.351562 L 44.648438 126.90625 L 44.648438 126.902344 C 46.539062 128.015625 48.972656 127.402344 50.101562 125.523438 L 62.988281 103.929688 L 64.628906 92.429688 C 64.6875 92.019531 64.988281 91.679688 65.390625 91.578125 C 65.792969 91.476562 66.222656 91.621094 66.46875 91.953125 L 75.628906 103.898438 L 75.632812 103.894531 C 75.777344 104.085938 75.855469 104.324219 75.84375 104.5625 L 74.835938 127.375 C 74.742188 129.5625 76.441406 131.417969 78.632812 131.523438 L 79.710938 131.566406 C 81.90625 131.660156 83.761719 129.964844 83.859375 127.773438 L 84.964844 102.753906 C 85.023438 101.816406 84.726562 100.894531 84.144531 100.160156 L 71.691406 83.925781 C 71.480469 83.667969 71.410156 83.324219 71.5 83 L 75.980469 67.015625 L 72.753906 62.660156 C 72.4375 62.199219 72.539062 61.570312 72.988281 61.238281 C 73.433594 60.90625 74.066406 60.988281 74.414062 61.429688 Z M 95.238281 60.441406 C 95.140625 59.890625 95.5 59.367188 96.046875 59.253906 C 96.597656 59.148438 97.132812 59.496094 97.257812 60.039062 L 97.945312 63.46875 C 100.335938 63.675781 102.339844 65.359375 102.949219 67.679688 C 103.402344 69.339844 103.230469 71.109375 102.464844 72.652344 C 101.976562 73.644531 101.21875 74.480469 100.277344 75.0625 L 110.542969 125.996094 C 110.636719 126.542969 110.273438 127.070312 109.726562 127.175781 C 109.183594 127.285156 108.648438 126.941406 108.523438 126.398438 L 98.332031 75.777344 C 97.753906 75.871094 97.171875 75.886719 96.59375 75.828125 L 81.890625 74.429688 C 81.601562 74.398438 81.335938 74.25 81.160156 74.015625 L 77.53125 69.113281 L 73.628906 83.058594 L 85.78125 98.90625 C 86.664062 100.023438 87.105469 101.425781 87.019531 102.84375 L 85.914062 127.863281 L 85.917969 127.863281 C 85.765625 131.1875 82.953125 133.765625 79.617188 133.625 L 78.539062 133.578125 C 75.210938 133.421875 72.632812 130.613281 72.773438 127.285156 L 73.765625 104.855469 L 66.324219 95.152344 L 65.003906 104.421875 C 64.980469 104.578125 64.921875 104.726562 64.839844 104.855469 L 51.878906 126.578125 C 50.167969 129.441406 46.464844 130.378906 43.597656 128.671875 L 42.675781 128.117188 L 42.671875 128.117188 C 39.8125 126.410156 38.875 122.703125 40.582031 119.839844 L 52.324219 100.167969 L 54.132812 87.628906 C 53.8125 86.832031 53.625 85.988281 53.578125 85.132812 C 53.578125 85.046875 53.570312 84.960938 53.570312 84.875 C 53.484375 84.925781 53.402344 84.972656 53.316406 85.019531 L 53.316406 85.023438 C 52.257812 85.601562 51.015625 85.730469 49.863281 85.378906 L 43.6875 83.527344 L 43.6875 83.535156 C 41.230469 82.785156 39.835938 80.195312 40.566406 77.738281 L 49.476562 48.046875 C 50.222656 45.589844 52.816406 44.195312 55.277344 44.925781 L 61.449219 46.777344 L 61.445312 46.777344 C 62.628906 47.132812 63.625 47.945312 64.207031 49.03125 C 64.292969 49.199219 64.375 49.367188 64.445312 49.542969 C 64.664062 49.34375 64.898438 49.164062 65.136719 48.992188 C 66.347656 48.164062 67.738281 47.648438 69.199219 47.488281 C 70.652344 47.324219 72.117188 47.445312 73.523438 47.84375 C 75.8125 48.449219 77.824219 49.804688 79.242188 51.691406 L 79.253906 51.703125 L 88.121094 62.546875 L 95.816406 63.277344 L 95.25 60.460938 Z M 62.617188 51.859375 C 62.316406 52.441406 62.078125 53.046875 61.902344 53.679688 L 55.269531 77.347656 L 53.695312 81.59375 C 53.453125 82.277344 52.972656 82.84375 52.339844 83.195312 C 51.765625 83.511719 51.085938 83.582031 50.453125 83.390625 L 44.285156 81.539062 C 42.914062 81.128906 42.140625 79.683594 42.550781 78.316406 L 51.460938 48.628906 L 51.457031 48.628906 C 51.871094 47.257812 53.316406 46.484375 54.683594 46.894531 L 60.855469 48.746094 C 62.179688 49.148438 62.957031 50.515625 62.621094 51.859375 Z M 78.472656 25.671875 C 73.289062 25.667969 68.824219 29.328125 67.808594 34.414062 C 66.796875 39.5 69.515625 44.589844 74.308594 46.574219 C 79.097656 48.5625 84.625 46.886719 87.507812 42.574219 C 90.390625 38.269531 89.824219 32.519531 86.15625 28.851562 C 84.117188 26.816406 81.355469 25.667969 78.472656 25.671875 Z M 84.695312 30.316406 L 84.699219 30.316406 C 81.726562 27.347656 77.078125 26.890625 73.589844 29.222656 C 70.097656 31.558594 68.742188 36.027344 70.347656 39.902344 C 71.953125 43.777344 76.074219 45.980469 80.195312 45.164062 C 84.308594 44.34375 87.273438 40.730469 87.273438 36.539062 C 87.277344 34.203125 86.347656 31.964844 84.699219 30.316406 Z M 84.695312 30.316406 " fill-opacity="1" fill-rule="evenodd"/></svg>