<svg xmlns="http://www.w3.org/2000/svg" xmlns:xlink="http://www.w3.org/1999/xlink" width="200" zoomAndPan="magnify" viewBox="0 0 150 149.999998" height="200" preserveAspectRatio="xMidYMid meet" version="1.0"><path fill="#000000" d="M 129.007812 87.425781 C 128.941406 87.257812 128.863281 87.101562 128.769531 86.96875 C 128.746094 86.925781 128.695312 86.890625 128.667969 86.851562 C 128.59375 86.757812 128.527344 86.667969 128.433594 86.589844 C 128.382812 86.550781 128.332031 86.523438 128.273438 86.488281 C 128.183594 86.421875 128.105469 86.371094 128 86.320312 C 127.933594 86.292969 127.867188 86.28125 127.804688 86.253906 C 127.726562 86.230469 127.644531 86.1875 127.554688 86.175781 L 127.503906 86.175781 C 127.488281 86.175781 127.476562 86.175781 127.460938 86.164062 L 116.375 84.488281 L 116.375 24.964844 C 116.375 20.1875 112.472656 16.300781 107.683594 16.300781 L 22.945312 16.300781 C 18.152344 16.300781 14.253906 20.1875 14.253906 24.964844 L 14.253906 109.429688 C 14.253906 114.207031 18.152344 118.097656 22.945312 118.097656 L 64.046875 118.097656 L 73.109375 134.722656 C 73.109375 134.722656 73.1875 134.824219 73.226562 134.878906 C 73.277344 134.957031 73.320312 135.023438 73.386719 135.089844 C 73.4375 135.15625 73.503906 135.207031 73.570312 135.257812 C 73.636719 135.308594 73.6875 135.375 73.765625 135.414062 C 73.832031 135.464844 73.90625 135.492188 73.988281 135.53125 C 74.066406 135.574219 74.132812 135.609375 74.214844 135.632812 C 74.289062 135.660156 74.382812 135.675781 74.464844 135.683594 C 74.53125 135.699219 74.597656 135.726562 74.660156 135.726562 L 95.761719 137.65625 L 95.945312 137.65625 C 96.601562 137.65625 97.214844 137.332031 97.582031 136.769531 L 106.394531 123.433594 L 119.617188 125.433594 C 119.722656 125.449219 119.8125 125.457031 119.90625 125.457031 C 120.046875 125.457031 120.179688 125.441406 120.324219 125.40625 C 120.375 125.40625 120.417969 125.382812 120.457031 125.367188 C 120.550781 125.339844 120.625 125.316406 120.71875 125.273438 C 120.769531 125.25 120.808594 125.222656 120.859375 125.199219 C 120.9375 125.15625 121.003906 125.121094 121.070312 125.066406 C 121.113281 125.023438 121.148438 124.988281 121.203125 124.949219 C 121.253906 124.90625 121.304688 124.871094 121.363281 124.816406 L 135.644531 109.207031 C 136.128906 108.671875 136.285156 107.914062 136.046875 107.234375 L 129.007812 87.394531 Z M 18.179688 109.429688 L 18.179688 24.964844 C 18.179688 22.339844 20.3125 20.214844 22.945312 20.214844 L 107.667969 20.214844 C 110.300781 20.214844 112.433594 22.339844 112.433594 24.964844 L 112.433594 83.878906 L 106.492188 82.976562 C 105.835938 82.875 105.183594 83.109375 104.753906 83.585938 L 101.792969 86.824219 C 101.441406 86.449219 100.929688 86.214844 100.382812 86.214844 L 46.234375 86.214844 L 46.234375 76.148438 L 100.375 76.148438 C 101.460938 76.148438 102.339844 75.273438 102.339844 74.191406 L 102.339844 32.234375 C 102.339844 31.15625 101.460938 30.277344 100.375 30.277344 L 30.238281 30.277344 C 29.152344 30.277344 28.273438 31.15625 28.273438 32.234375 L 28.273438 46.214844 C 28.273438 47.296875 29.152344 48.171875 30.238281 48.171875 L 84.378906 48.171875 L 84.378906 58.234375 L 30.238281 58.230469 C 29.152344 58.230469 28.273438 59.105469 28.273438 60.1875 L 28.273438 102.136719 C 28.273438 103.214844 29.152344 104.09375 30.238281 104.09375 L 69.695312 104.09375 L 63.074219 114.132812 C 63.074219 114.132812 63.074219 114.15625 63.058594 114.171875 L 22.945312 114.167969 C 20.3125 114.167969 18.179688 112.039062 18.179688 109.414062 Z M 104.066406 115.863281 L 87.664062 114.363281 L 79.792969 99.941406 L 96.199219 101.441406 Z M 60.253906 100.203125 L 60.253906 90.136719 L 70.347656 90.136719 L 70.347656 100.203125 Z M 46.230469 100.203125 L 46.230469 90.136719 L 56.324219 90.136719 L 56.324219 100.203125 Z M 56.324219 62.171875 L 56.324219 72.234375 L 46.230469 72.234375 L 46.230469 62.171875 Z M 70.347656 62.171875 L 70.347656 72.234375 L 60.253906 72.234375 L 60.253906 62.171875 Z M 84.367188 62.171875 L 84.367188 72.234375 L 74.273438 72.234375 L 74.273438 62.171875 Z M 46.230469 34.191406 L 56.324219 34.191406 L 56.324219 44.253906 L 46.230469 44.253906 Z M 42.304688 44.253906 L 32.210938 44.253906 L 32.210938 34.191406 L 42.304688 34.191406 Z M 60.253906 34.191406 L 70.347656 34.191406 L 70.347656 44.253906 L 60.253906 44.253906 Z M 74.273438 34.191406 L 84.367188 34.191406 L 84.367188 44.253906 L 74.273438 44.253906 Z M 98.402344 34.191406 L 98.402344 44.253906 L 88.308594 44.253906 L 88.308594 34.191406 Z M 88.308594 48.171875 L 98.402344 48.171875 L 98.402344 58.234375 L 88.308594 58.234375 Z M 88.308594 62.148438 L 98.402344 62.148438 L 98.402344 72.210938 L 88.308594 72.210938 Z M 42.304688 72.210938 L 32.210938 72.210938 L 32.210938 62.148438 L 42.304688 62.148438 Z M 42.304688 76.128906 L 42.304688 86.191406 L 32.210938 86.191406 L 32.210938 76.128906 Z M 32.210938 90.105469 L 42.304688 90.105469 L 42.304688 100.171875 L 32.210938 100.171875 Z M 98.410156 90.484375 L 92.335938 97.113281 L 88.304688 96.746094 L 88.304688 90.101562 L 98.402344 90.101562 L 98.402344 90.480469 Z M 84.390625 96.382812 L 76.507812 95.664062 L 76.40625 95.664062 C 76.339844 95.664062 76.273438 95.679688 76.210938 95.679688 C 76.121094 95.679688 76.019531 95.679688 75.925781 95.703125 C 75.859375 95.703125 75.808594 95.746094 75.742188 95.753906 C 75.640625 95.78125 75.53125 95.820312 75.441406 95.855469 C 75.363281 95.898438 75.296875 95.949219 75.214844 96 C 75.148438 96.039062 75.082031 96.078125 75.019531 96.132812 C 74.886719 96.25 74.769531 96.382812 74.679688 96.523438 L 74.285156 97.125 L 74.285156 90.082031 L 84.378906 90.082031 L 84.378906 96.371094 Z M 123.230469 89.429688 L 112.128906 101.550781 L 99.746094 99.6875 L 99.15625 98.617188 C 98.84375 98.039062 98.269531 97.660156 97.613281 97.597656 L 97.246094 97.554688 L 106.945312 86.957031 L 123.230469 89.410156 Z M 67.019531 115.28125 L 76.167969 101.421875 L 84.164062 116.085938 L 75.015625 129.949219 Z M 78.289062 132.105469 L 87.4375 118.242188 L 94.78125 118.910156 L 104.101562 119.757812 L 94.953125 133.621094 L 78.28125 132.089844 Z M 109.195312 119.1875 C 109.289062 119.042969 109.363281 118.886719 109.421875 118.71875 C 109.4375 118.667969 109.445312 118.601562 109.460938 118.550781 C 109.488281 118.449219 109.511719 118.324219 109.527344 118.222656 L 109.527344 118.03125 C 109.527344 117.929688 109.527344 117.820312 109.503906 117.71875 C 109.488281 117.652344 109.460938 117.585938 109.4375 117.523438 C 109.410156 117.449219 109.394531 117.355469 109.359375 117.273438 C 109.359375 117.261719 109.332031 117.25 109.332031 117.234375 C 109.332031 117.21875 109.332031 117.207031 109.316406 117.195312 L 102.132812 104.023438 L 111.457031 105.433594 L 117.019531 121.078125 L 108.820312 119.839844 L 109.242188 119.210938 Z M 120.675781 119.746094 L 115.113281 104.101562 L 126.398438 91.769531 L 131.960938 107.414062 Z M 120.675781 119.746094 " fill-opacity="1" fill-rule="nonzero"/></svg>